<?xml version="1.0" encoding="utf-8"?>
<!-- Generator: Adobe Illustrator 23.0.3, SVG Export Plug-In . SVG Version: 6.00 Build 0)  -->
<svg version="1.1" id="Layer_1" xmlns="http://www.w3.org/2000/svg" xmlns:xlink="http://www.w3.org/1999/xlink" x="0px" y="0px"
	 viewBox="0 0 260.35 103.03" style="enable-background:new 0 0 260.35 103.03;" xml:space="preserve">
<g>
	<g>
		<path d="M198.46,42.24c-7.51,0.09-15.56,0.58-24,1.43c-51.95,5.26-102.79,5.91-133.31-5.76l-1.24-0.53
			c-0.56-0.28-0.97-0.21-1.01,0.17c-0.08,0.74,2.32,1.78,3.62,2.43c2.82,1.41,11.26,5.35,17.47,7.16c3.33,0.97,9.74,3.63,29.06,5.06
			c37.46,2.78,86.14-3.03,91.21-3.58c34.39-3.74,52.4,3.4,61.85,8.07c0,0,0.68,0.38,0.87-0.06c0.1-0.23-0.53-0.86-0.53-0.86
			C235.31,49.33,221.71,42.92,198.46,42.24"/>
		<path d="M5.11,32.8c-1.44,0-2.66-0.44-3.64-1.32C0.49,30.55,0,29.43,0,28.11V5.26c0-0.63,0.24-1.17,0.7-1.61
			c0.52-0.49,1.15-0.73,1.89-0.73c0.65,0,1.23,0.24,1.75,0.73c0.52,0.43,0.77,0.98,0.77,1.61v20.5c0,0.69,0.24,1.25,0.7,1.68
			c0.52,0.44,1.15,0.66,1.89,0.66h5.11c0.7,0,1.29-0.22,1.75-0.66c0.52-0.43,0.77-0.99,0.77-1.68V5.65c0-0.63,0.25-1.17,0.77-1.61
			c0.47-0.48,1.08-0.73,1.82-0.73c0.7,0,1.29,0.25,1.75,0.73c0.56,0.44,0.84,0.98,0.84,1.61v20.12c0,0.69,0.24,1.25,0.71,1.68
			c0.46,0.44,1.07,0.66,1.82,0.66h5.11c0.7,0,1.29-0.22,1.75-0.66c0.56-0.43,0.84-0.99,0.84-1.68V5.26c0-0.63,0.24-1.17,0.7-1.61
			c0.46-0.49,1.08-0.73,1.82-0.73c0.7,0,1.3,0.24,1.82,0.73c0.52,0.43,0.77,0.98,0.77,1.61v22.85c0,1.32-0.52,2.44-1.54,3.37
			c-0.98,0.88-2.17,1.32-3.57,1.32H5.11z"/>
		<path d="M73.13,18.74V16.4c0-0.63-0.24-1.17-0.7-1.61c-0.43-0.48-0.94-0.73-1.54-0.73h-22.4c-0.66,0-1.19,0.25-1.61,0.73
			c-0.42,0.44-0.63,0.98-0.63,1.61v2.34H73.13z M46.24,32.8c-1.26,0-2.34-0.44-3.22-1.32c-0.84-0.93-1.26-2.05-1.26-3.37V14.06
			c0-1.27,0.42-2.37,1.26-3.29c0.88-0.92,1.96-1.39,3.22-1.39h26.89c1.21,0,2.27,0.47,3.15,1.39c0.88,0.93,1.33,2.03,1.33,3.29v9.38
			H46.24v2.34c0,0.69,0.21,1.25,0.63,1.68c0.42,0.44,0.95,0.66,1.61,0.66h26.89c0.6,0,1.12,0.25,1.54,0.73
			c0.46,0.44,0.7,0.98,0.7,1.61c0,0.69-0.24,1.24-0.7,1.68c-0.42,0.44-0.94,0.66-1.54,0.66H46.24z"/>
		<path d="M114.9,18.74V16.4c0-0.63-0.24-1.17-0.7-1.61c-0.42-0.48-0.94-0.73-1.54-0.73H90.25c-0.66,0-1.19,0.25-1.61,0.73
			c-0.42,0.44-0.63,0.98-0.63,1.61v2.34H114.9z M88.01,32.8c-1.26,0-2.34-0.44-3.22-1.32c-0.84-0.93-1.26-2.05-1.26-3.37V14.06
			c0-1.27,0.42-2.37,1.26-3.29c0.88-0.92,1.96-1.39,3.22-1.39h26.89c1.21,0,2.27,0.47,3.15,1.39c0.88,0.93,1.33,2.03,1.33,3.29v9.38
			H88.01v2.34c0,0.69,0.21,1.25,0.63,1.68c0.42,0.44,0.95,0.66,1.61,0.66h26.89c0.6,0,1.12,0.25,1.54,0.73
			c0.47,0.44,0.71,0.98,0.71,1.61c0,0.69-0.24,1.24-0.71,1.68c-0.42,0.44-0.94,0.66-1.54,0.66H88.01z"/>
		<path d="M129.78,32.8c-1.26,0-2.34-0.44-3.22-1.32c-0.84-0.93-1.26-2.05-1.26-3.37V14.06c0-1.27,0.42-2.37,1.26-3.29
			c0.89-0.92,1.96-1.39,3.22-1.39h22.82c0.6,0,1.12,0.24,1.54,0.73c0.47,0.44,0.71,0.98,0.71,1.61c0,0.69-0.24,1.25-0.71,1.69
			c-0.42,0.44-0.93,0.66-1.54,0.66h-20.58c-0.66,0-1.19,0.25-1.61,0.73c-0.42,0.44-0.63,0.98-0.63,1.61v9.37
			c0,0.69,0.21,1.25,0.63,1.68c0.42,0.44,0.95,0.66,1.61,0.66h24.65V2.34c0-0.63,0.21-1.17,0.63-1.61C157.71,0.25,158.25,0,158.9,0
			c0.61,0,1.12,0.25,1.54,0.73c0.47,0.44,0.7,0.98,0.7,1.61V32.8H129.78z"/>
		<path d="M196.18,28.11c0.6,0,1.12-0.22,1.54-0.66c0.47-0.44,0.71-0.99,0.71-1.68V16.4c0-0.63-0.24-1.17-0.71-1.61
			c-0.42-0.48-0.94-0.73-1.54-0.73h-22.41c-0.66,0-1.19,0.25-1.61,0.73c-0.42,0.44-0.63,0.98-0.63,1.61v9.37
			c0,0.69,0.21,1.25,0.63,1.68c0.42,0.44,0.95,0.66,1.61,0.66H196.18z M171.54,32.8c-1.26,0-2.34-0.44-3.22-1.32
			c-0.84-0.93-1.26-2.05-1.26-3.37V14.05c0-1.27,0.42-2.37,1.26-3.29c0.89-0.92,1.96-1.39,3.22-1.39h26.89
			c1.22,0,2.26,0.47,3.15,1.39c0.89,0.93,1.33,2.03,1.33,3.29v14.06c0,1.32-0.44,2.44-1.33,3.37c-0.88,0.88-1.93,1.32-3.15,1.32
			H171.54z"/>
		<path d="M237.95,28.11c0.6,0,1.11-0.22,1.54-0.66c0.47-0.44,0.7-0.99,0.7-1.68V16.4c0-0.63-0.24-1.17-0.7-1.61
			c-0.42-0.48-0.94-0.73-1.54-0.73h-22.41c-0.65,0-1.19,0.25-1.61,0.73c-0.42,0.44-0.63,0.98-0.63,1.61v9.37
			c0,0.69,0.21,1.25,0.63,1.68c0.42,0.44,0.95,0.66,1.61,0.66H237.95z M213.3,32.8c-1.26,0-2.34-0.44-3.22-1.32
			c-0.84-0.93-1.26-2.05-1.26-3.37V14.05c0-1.27,0.42-2.37,1.26-3.29c0.88-0.92,1.96-1.39,3.22-1.39h26.88
			c1.22,0,2.27,0.47,3.15,1.39c0.88,0.93,1.33,2.03,1.33,3.29v14.06c0,1.32-0.45,2.44-1.33,3.37c-0.88,0.88-1.93,1.32-3.15,1.32
			H213.3z"/>
		<path d="M253.64,8.67h0.51c0.64,0,1.02-0.25,1.02-0.67c0-0.46-0.37-0.71-0.95-0.71c-0.2,0-0.41,0.03-0.58,0.03V8.67z
			 M253.61,11.86h-1.69V6.3c0.37-0.07,1.29-0.21,2.41-0.21c1.25,0,1.76,0.18,2.17,0.46c0.34,0.21,0.58,0.64,0.58,1.2
			c0,0.57-0.51,1.06-1.22,1.27V9.1c0.58,0.18,0.91,0.64,1.08,1.42c0.17,0.81,0.28,1.17,0.37,1.34h-1.83
			c-0.17-0.21-0.27-0.67-0.41-1.2c-0.1-0.57-0.37-0.82-0.91-0.82h-0.54V11.86z M254.28,4.42c-2.37,0-4.16,2.06-4.16,4.61
			c0,2.52,1.79,4.57,4.23,4.57c2.44,0.04,4.24-2.05,4.24-4.6c0-2.51-1.8-4.57-4.27-4.57H254.28z M254.39,2.9
			c3.35,0,5.96,2.73,5.96,6.09c0,3.4-2.61,6.13-6,6.13c-3.35,0-6.03-2.72-6.03-6.13c0-3.36,2.68-6.09,6.03-6.09H254.39z"/>
	</g>
	<g>
		<path d="M77.23,88.54c0.15-0.28,0.28-0.62,0.41-1c0.27-0.8,0.54-1.5,0.82-2.08c0.07-0.26,0.11-0.52,0.1-0.8
			c-0.13,0.07-0.26,0.12-0.39,0.17c-0.36,0.3-0.65,0.63-0.88,0.98c-0.3,0.46-0.55,0.92-0.74,1.36c-0.02,0.05-0.05,0.1-0.07,0.14
			c-0.1,0.16-0.15,0.34-0.16,0.56c0.09,0.06,0.18,0.14,0.26,0.23c0.13,0.09,0.25,0.19,0.36,0.31
			C76.99,88.44,77.09,88.48,77.23,88.54 M74.9,91.38c-0.02,0.11-0.03,0.22-0.03,0.33c-0.01,0.27-0.02,0.53-0.02,0.78
			c0.23-0.22,0.44-0.43,0.65-0.62c0.03-0.03,0.07-0.07,0.12-0.13c-0.1-0.05-0.21-0.1-0.32-0.15C75.15,91.53,75.02,91.46,74.9,91.38
			 M52.92,97.1c-0.7,0-1.37-0.19-1.99-0.56c-0.2-0.01-0.39-0.07-0.57-0.16l-0.27-0.14c-0.09-0.05-0.17-0.11-0.25-0.18
			c-0.49-0.46-0.9-0.89-1.24-1.29c-0.45-0.54-0.74-1.18-0.87-1.91c-0.03-0.1-0.05-0.21-0.06-0.34c-0.38,0.5-0.75,0.9-1.13,1.23
			l-0.51,0.53c-0.18,0.19-0.31,0.35-0.42,0.49c-0.05,0.07-0.1,0.13-0.16,0.18c-0.45,0.42-0.88,0.71-1.31,0.9
			c-0.67,0.27-1.2,0.45-1.67,0.58c-0.23,0.06-0.49,0.1-0.76,0.1c-0.47,0-0.99-0.1-1.58-0.29c-0.1-0.03-0.2-0.08-0.29-0.14
			c-0.03-0.02-0.1-0.06-0.23-0.11c-0.3-0.11-0.56-0.27-0.77-0.5c-0.62-0.27-1.07-0.8-1.28-1.52c-0.14-0.58-0.17-1.09-0.1-1.55
			c0.04-0.29,0.09-0.62,0.13-0.98c0.01-0.05,0.02-0.11,0.03-0.16c0.17-0.67,0.31-1.33,0.42-1.97c0.12-0.73,0.31-1.47,0.55-2.2
			c0.16-0.46,0.28-0.9,0.36-1.31c0.09-0.5,0.24-1.03,0.43-1.58l0.11-0.46c-0.04-0.2-0.03-0.4,0.03-0.6
			c0.32-1.08,1.13-1.71,2.24-1.75c0.27-0.05,0.5-0.08,0.71-0.08c0.97,0,1.44,0.61,1.55,1.18c0.01,0.08,0.06,0.29,0.25,0.79
			c0.13,0.28,0.22,0.71-0.03,1.24c-0.01,0.11-0.03,0.22-0.07,0.32c-0.08,0.22-0.11,0.43-0.1,0.63c0.03,0.58-0.1,1.14-0.4,1.64
			c-0.22,0.71-0.44,1.4-0.67,2.07c-0.24,0.67-0.46,1.33-0.67,2c-0.04,0.22-0.09,0.51-0.15,0.87c0,0.02-0.01,0.04-0.01,0.05
			c0.33-0.28,0.64-0.59,0.94-0.94c0.5-0.59,1.06-1.34,1.66-2.24c0.04-0.06,0.08-0.11,0.13-0.16c0.15-0.16,0.32-0.32,0.5-0.49
			c0.1-0.09,0.14-0.15,0.16-0.17c0.5-0.75,0.91-1.39,1.24-1.92c0.36-0.58,0.81-1.25,1.35-1.99c0.03-0.05,0.07-0.09,0.11-0.13
			c0.1-0.11,0.13-0.16,0.13-0.16c0.1-0.23,0.23-0.46,0.4-0.66c0.21-0.41,0.62-1.07,1.39-1.07c0.17,0,0.4,0.03,1.11,0.16
			c0.15,0.03,0.3,0.09,0.43,0.18c0.27,0.19,0.44,0.39,0.55,0.59c0.53,0.36,0.8,0.98,0.69,1.66c-0.01,0.04-0.01,0.08-0.02,0.12
			c-0.12,0.44-0.18,0.79-0.2,1.06c-0.03,0.4-0.09,0.87-0.18,1.43c-0.01,0.04-0.02,0.08-0.03,0.12c-0.05,0.19-0.07,0.37-0.06,0.56
			c0.03,0.42,0.01,0.83-0.04,1.24c-0.01,0.07-0.03,0.15-0.05,0.22c-0.16,0.49-0.2,0.92-0.13,1.27c0.1,0.5,0.19,1.02,0.27,1.56
			c0.23,0.17,0.37,0.28,0.48,0.35c0.06,0.04,0.12,0.09,0.17,0.14c0.29-0.09,0.58-0.24,0.87-0.45c0.34-0.25,0.67-0.55,0.97-0.9
			c0.38-0.45,0.52-0.69,0.57-0.79c0.07-0.16,0.18-0.3,0.31-0.41c0.12-0.1,0.2-0.2,0.26-0.31c0.16-0.28,0.35-0.56,0.56-0.83
			c0.33-0.43,0.57-0.78,0.73-1.04c0.17-0.28,0.32-0.55,0.44-0.79c0.1-0.2,0.2-0.43,0.29-0.71c0.12-0.34,0.29-0.81,0.52-1.39
			c0.03-0.08,0.07-0.15,0.12-0.22c0.24-0.35,0.27-0.51,0.27-0.51c0-0.07-0.02-0.34-0.16-0.88c-0.13-0.52-0.17-0.99-0.14-1.42
			c0.02-0.2,0.01-0.45-0.02-0.72c-0.14-0.68,0.04-1.17,0.22-1.47c0.3-0.49,0.8-0.81,1.49-0.96c0.21-0.04,0.37-0.06,0.48-0.06
			c0.33,0,0.64,0.15,0.87,0.39c0.1,0.07,0.19,0.16,0.26,0.26c0.13,0.18,0.21,0.26,0.24,0.3c0.34,0.16,0.66,0.43,0.99,0.84
			c0.17,0.22,0.27,0.49,0.27,0.77c0,0.41-0.02,0.77-0.04,1.08c-0.02,0.25-0.03,0.5-0.03,0.75c0,0.16,0.01,0.39,0.03,0.68
			c0.02,0.31,0.05,0.6,0.09,0.9c0.03,0.21,0.07,0.38,0.13,0.53c0.13,0.1,0.25,0.23,0.33,0.38c0.13,0.23,0.26,0.43,0.41,0.58
			l0.48,0.5c0.26,0.08,0.53,0.14,0.79,0.19c0.11,0.02,0.23,0.03,0.34,0.03c0.16,0,0.34-0.02,0.52-0.06c0.9-0.11,1.49-0.18,1.87-0.23
			c0.09-0.01,0.44-0.08,1.26-0.51c0.04-0.02,0.07-0.04,0.11-0.05c0.4-0.15,0.73-0.27,1.01-0.35c0.15-0.04,0.29-0.1,0.41-0.17
			c0.17-0.1,0.35-0.23,0.56-0.38c0.22-0.17,0.51-0.38,0.87-0.63c0.03-0.05,0.06-0.13,0.08-0.22c0.02-0.08,0.05-0.15,0.09-0.23
			c0.41-0.8,0.81-1.32,1.27-1.65c0.15-0.11,0.43-0.35,0.91-0.91c0.06-0.07,0.12-0.13,0.19-0.18l0.67-0.49
			c0.86-0.52,1.54-0.78,2.15-0.84c0.38-0.05,0.76-0.08,1.12-0.08c0.4,0,0.71,0.03,0.95,0.11c0.33,0.08,0.66,0.22,0.98,0.42
			c0.36,0.23,0.65,0.54,0.84,0.91c0.29,0.35,0.49,0.74,0.59,1.16c0.07,0.3,0.13,0.57,0.18,0.82c0.06,0.26,0.07,0.58,0.03,0.95
			c0.09,0.76,0.07,1.33-0.06,1.78c-0.1,0.33-0.21,0.69-0.36,1.09c-0.12,0.34-0.21,0.62-0.28,0.84c0.25-0.04,0.49-0.09,0.71-0.13
			c0.71-0.14,1.37-0.28,1.97-0.44c0.57-0.15,1.12-0.33,1.63-0.55c0.54-0.23,1.14-0.5,1.78-0.81c0.22-0.14,0.43-0.26,0.53-0.33
			c0-0.01,0.08-0.07,0.09-0.07l0.36-0.38c0.15-0.16,0.38-0.37,0.72-0.66c0.02-0.09,0.04-0.17,0.06-0.26
			c0.01-0.04,0.02-0.08,0.04-0.12c0.04-0.09,0.05-0.18,0.05-0.26c0-0.32,0.03-0.63,0.09-0.94c0.17-0.67,0.24-1.3,0.24-1.94
			c0-0.79,0.45-1.44,1.19-1.7c0.23-0.08,0.45-0.12,0.66-0.12c0.33,0,0.65,0.09,0.92,0.27c0.35,0.17,0.71,0.38,1.05,0.64
			c0.99,0.64,0.96,1.52,0.87,1.95c0,0.02,0,0.05-0.01,0.07c0.23-0.14,0.48-0.26,0.74-0.37c0.62-0.25,1.24-0.48,1.83-0.68
			c0.44-0.19,0.92-0.29,1.43-0.29c0.3,0,0.62,0.04,0.94,0.1c0.05,0.01,0.1,0.02,0.14,0.04c0.28,0.1,0.54,0.19,0.79,0.29
			c0.41,0.16,0.78,0.41,1.12,0.77c0.19,0.21,0.32,0.45,0.37,0.7c0.1,0.21,0.14,0.45,0.12,0.69c-0.04,0.36-0.28,0.76-0.57,0.95
			c-0.25,0.17-0.55,0.27-0.86,0.27h-0.13c-0.08,0-0.15-0.01-0.23-0.02h-0.02c-0.18,0-0.38-0.04-0.59-0.11
			c-0.07,0.01-0.2,0.01-0.41,0.07c-0.17,0.07-0.34,0.16-0.52,0.26c-0.23,0.13-0.45,0.26-0.66,0.4c-0.34,0.2-0.63,0.43-0.89,0.7
			c-0.35,0.37-0.72,0.73-1.1,1.07c-0.03,0.03-0.06,0.05-0.09,0.07c-0.25,0.19-0.51,0.43-0.77,0.72c-0.28,0.31-0.64,0.76-1.08,1.34
			c-0.15,0.3-0.33,0.6-0.53,0.91c-0.17,0.26-0.34,0.52-0.5,0.77c-0.12,0.28-0.27,0.51-0.45,0.69c-0.17,0.33-0.31,0.66-0.4,0.99
			c-0.13,0.46-0.27,0.94-0.44,1.42c-0.01,0.11-0.03,0.21-0.05,0.32c0,0.19-0.04,0.37-0.12,0.53c-0.21,0.43-0.55,0.77-0.99,0.98
			c-0.25,0.12-0.5,0.17-0.74,0.17c-0.23,0-0.45-0.05-0.66-0.15c-0.58-0.18-1.1-0.48-1.55-0.87c-0.67-0.51-0.89-1.36-0.55-2.19
			c0.07-0.19,0.16-0.42,0.24-0.67c0.11-0.33,0.26-0.64,0.43-0.95c0.14-0.27,0.27-0.64,0.37-1.09c-0.1,0.05-0.21,0.1-0.33,0.15
			c-0.22,0.09-0.59,0.25-1.13,0.48c-0.7,0.34-1.71,0.69-3.05,1.04c-1.32,0.34-2.55,0.52-3.66,0.53c-0.02,0.05-0.05,0.1-0.07,0.14
			c-0.3,0.51-0.63,0.89-1,1.17c-0.09,0.07-0.23,0.21-0.41,0.51c-0.03,0.06-0.07,0.11-0.12,0.16l-0.54,0.63
			c-0.47,0.55-1.02,0.98-1.66,1.28c-0.6,0.29-1.23,0.44-1.85,0.46c-0.12,0.02-0.26,0.03-0.4,0.03c-0.24,0-0.49-0.03-0.78-0.08
			c-0.52-0.1-0.86-0.23-1.11-0.43c-0.64-0.39-1.14-0.93-1.49-1.61c-0.35-0.67-0.53-1.36-0.54-2.05c-0.08-0.9-0.04-1.76,0.12-2.57
			c-0.13,0.05-0.25,0.1-0.36,0.14c-0.1,0.04-0.22,0.08-0.35,0.14c-0.25,0.11-0.54,0.2-0.9,0.26c-0.06,0.01-0.12,0.02-0.18,0.02
			c-0.1,0-0.27,0.02-0.54,0.12c-0.35,0.12-0.72,0.19-1.1,0.19c-0.1,0-0.2,0-0.3-0.01c-0.23,0.03-0.46,0.04-0.69,0.04
			c-0.62,0-1.21-0.09-1.77-0.27c-0.7-0.23-1.41-0.54-2.12-0.93c-0.24-0.11-0.44-0.29-0.61-0.48c-0.45,0.97-0.87,1.75-1.28,2.38
			c-0.47,0.72-1.13,1.55-2.03,2.54c-0.07,0.08-0.15,0.15-0.24,0.2c-0.15,0.09-0.22,0.17-0.25,0.21c-0.17,0.21-0.37,0.4-0.59,0.58
			c-0.43,0.44-0.91,0.8-1.45,1.08c-0.55,0.29-1.19,0.48-1.97,0.6C53.58,97.06,53.25,97.1,52.92,97.1"/>
		<path d="M79.53,85.91c-0.27,0.56-0.54,1.24-0.81,2.03c-0.27,0.8-0.58,1.43-0.94,1.89c-0.09,0.09-0.35,0.06-0.77-0.11
			c-0.43-0.16-0.71-0.29-0.84-0.39c-0.05-0.09-0.12-0.18-0.24-0.24c-0.11-0.07-0.17-0.13-0.17-0.18c-0.49-0.23-0.69-0.56-0.6-0.98
			c0-0.47,0.11-0.89,0.34-1.26c0.22-0.51,0.5-1.03,0.84-1.54c0.34-0.51,0.77-0.98,1.31-1.4c0.22-0.05,0.42-0.14,0.6-0.28
			c0.18-0.19,0.49-0.21,0.94-0.07c0.45,0.14,0.6,0.4,0.47,0.77C79.75,84.76,79.7,85.35,79.53,85.91 M77.21,91.21
			c-0.02,0.07-0.08,0.15-0.17,0.24c-0.23,0.61-0.49,1.05-0.81,1.33c-0.31,0.28-0.65,0.61-1.01,0.98c-1.12,0.89-1.63,0.8-1.54-0.28
			v-0.21c0-0.52,0.01-1.05,0.03-1.61c0.02-0.56,0.17-1.1,0.44-1.61c0.04-0.14,0.11-0.29,0.2-0.46c0.09-0.16,0.16-0.2,0.2-0.11
			c0.27,0.42,0.67,0.76,1.21,1.02c0.54,0.26,0.92,0.43,1.14,0.53c0.18-0.05,0.28-0.05,0.3,0C77.23,91.08,77.23,91.13,77.21,91.21
			 M101.36,83.59c-0.04-0.09-0.07-0.16-0.07-0.21c0-0.05-0.02-0.09-0.07-0.14c-0.22-0.23-0.46-0.4-0.71-0.49
			c-0.25-0.09-0.5-0.19-0.77-0.28c-0.67-0.14-1.25-0.09-1.75,0.14c-0.58,0.19-1.19,0.41-1.81,0.67c-0.63,0.26-1.14,0.62-1.54,1.09
			c-0.18,0.24-0.33,0.4-0.47,0.49c-0.14,0.09-0.34,0.26-0.61,0.49h-0.07v-0.14c0.09-0.52,0.17-1.01,0.23-1.47
			c0.07-0.47,0.12-0.96,0.17-1.47c0.09-0.28-0.04-0.54-0.4-0.77c-0.31-0.23-0.63-0.42-0.94-0.56c-0.18-0.14-0.4-0.16-0.67-0.07
			c-0.27,0.09-0.4,0.28-0.4,0.56c0,0.75-0.09,1.47-0.27,2.17c-0.05,0.24-0.07,0.47-0.07,0.7c0,0.24-0.05,0.47-0.13,0.7
			c-0.05,0.2-0.09,0.41-0.14,0.61c-0.01,0-0.02,0.02-0.03,0.02c-0.45,0.38-0.75,0.64-0.91,0.81c-0.16,0.16-0.28,0.29-0.37,0.39
			c-0.09,0.09-0.19,0.18-0.3,0.24c-0.11,0.07-0.33,0.2-0.64,0.39c-0.67,0.33-1.29,0.61-1.85,0.84c-0.56,0.23-1.15,0.43-1.78,0.6
			c-0.63,0.16-1.31,0.32-2.05,0.46c-0.74,0.14-1.6,0.28-2.58,0.42c-0.05-0.05-0.05-0.12,0-0.21c0.04-0.09,0.07-0.16,0.07-0.21
			c0.22-0.51,0.37-0.9,0.44-1.16c0.07-0.26,0.19-0.64,0.37-1.16c0.14-0.37,0.25-0.71,0.33-1.02c0.09-0.3,0.09-0.78,0-1.44
			c0.05-0.28,0.05-0.51,0-0.7c-0.05-0.23-0.1-0.49-0.17-0.77c-0.07-0.28-0.21-0.54-0.43-0.77c-0.09-0.23-0.25-0.42-0.47-0.56
			s-0.45-0.23-0.67-0.28c-0.14-0.05-0.36-0.07-0.67-0.07c-0.31,0-0.65,0.02-1.01,0.07c-0.45,0.05-0.98,0.26-1.61,0.63l-0.67,0.49
			c-0.45,0.52-0.82,0.88-1.11,1.09c-0.29,0.21-0.59,0.62-0.91,1.23c-0.05,0.19-0.13,0.37-0.21,0.53c-0.05,0.07-0.11,0.15-0.19,0.24
			c-0.4,0.28-0.73,0.52-0.97,0.7c-0.25,0.19-0.47,0.34-0.67,0.46c-0.2,0.12-0.43,0.21-0.67,0.28c-0.25,0.07-0.55,0.18-0.91,0.32
			c-0.71,0.38-1.27,0.59-1.64,0.63c-0.38,0.05-0.97,0.12-1.78,0.21c-0.45,0.09-0.87,0.1-1.28,0.03c-0.4-0.07-0.81-0.17-1.21-0.32
			c-0.23-0.23-0.45-0.47-0.67-0.7c-0.23-0.23-0.43-0.51-0.6-0.84c-0.13-0.05-0.26-0.2-0.37-0.46c-0.11-0.26-0.19-0.55-0.24-0.88
			c-0.05-0.33-0.08-0.65-0.1-0.98c-0.02-0.33-0.03-0.58-0.03-0.77c0-0.28,0.01-0.56,0.03-0.84c0.02-0.28,0.03-0.61,0.03-0.98
			c-0.23-0.28-0.43-0.46-0.61-0.53c-0.18-0.07-0.4-0.29-0.67-0.67c-0.09-0.05-0.14-0.09-0.14-0.14c0-0.05-0.11-0.05-0.33,0
			c-0.67,0.14-0.94,0.49-0.81,1.05c0.04,0.37,0.05,0.71,0.03,1.02c-0.02,0.3,0.01,0.64,0.1,1.02c0.13,0.52,0.2,0.92,0.2,1.23
			c0,0.3-0.16,0.69-0.47,1.16c-0.22,0.56-0.39,1.01-0.5,1.33c-0.11,0.33-0.24,0.62-0.37,0.88c-0.14,0.26-0.29,0.54-0.47,0.84
			c-0.18,0.3-0.45,0.69-0.81,1.16c-0.18,0.24-0.33,0.47-0.47,0.7c-0.13,0.24-0.31,0.45-0.54,0.63c-0.14,0.28-0.38,0.63-0.74,1.05
			c-0.36,0.42-0.75,0.78-1.17,1.09c-0.43,0.31-0.85,0.52-1.28,0.63c-0.43,0.12-0.77,0.01-1.04-0.32c-0.13-0.09-0.33-0.23-0.57-0.42
			c-0.25-0.19-0.37-0.35-0.37-0.49c-0.09-0.61-0.19-1.19-0.3-1.75c-0.11-0.56-0.06-1.19,0.17-1.89c0.04-0.33,0.05-0.65,0.03-0.98
			c-0.02-0.33,0.01-0.65,0.1-0.98c0.09-0.51,0.14-0.95,0.17-1.3c0.02-0.35,0.1-0.78,0.23-1.3c0.05-0.28-0.09-0.47-0.4-0.56
			c-0.09-0.09-0.13-0.18-0.13-0.25c0-0.07-0.07-0.15-0.2-0.24c-0.49-0.09-0.8-0.14-0.9-0.14c-0.11,0-0.26,0.19-0.44,0.56
			c-0.13,0.14-0.23,0.29-0.3,0.46c-0.07,0.16-0.19,0.34-0.37,0.53c-0.54,0.75-0.97,1.39-1.31,1.93c-0.33,0.54-0.75,1.18-1.24,1.93
			c-0.09,0.14-0.21,0.28-0.37,0.42c-0.16,0.14-0.3,0.28-0.43,0.42c-0.63,0.94-1.21,1.72-1.75,2.35c-0.54,0.63-1.12,1.16-1.75,1.58
			c-0.45,0.24-0.77,0.32-0.97,0.24c-0.2-0.07-0.35-0.39-0.44-0.95c0.09-0.23,0.17-0.56,0.24-0.98c0.07-0.42,0.12-0.75,0.17-0.98
			c0.22-0.7,0.46-1.4,0.7-2.1c0.24-0.7,0.48-1.43,0.71-2.18c0.22-0.33,0.32-0.68,0.3-1.05c-0.02-0.37,0.03-0.75,0.17-1.12
			c-0.05-0.09-0.02-0.21,0.07-0.35c0.09-0.14,0.11-0.23,0.07-0.28c-0.18-0.47-0.29-0.82-0.33-1.05c-0.05-0.23-0.38-0.28-1.01-0.14
			c-0.67,0-1.1,0.31-1.28,0.91c0.05,0.14,0.05,0.31,0,0.49c-0.05,0.19-0.09,0.37-0.13,0.56c-0.18,0.52-0.31,1.01-0.4,1.47
			c-0.09,0.47-0.23,0.96-0.4,1.47c-0.22,0.66-0.39,1.32-0.5,2c-0.11,0.68-0.26,1.37-0.44,2.07c-0.04,0.38-0.09,0.71-0.13,1.02
			c-0.05,0.31-0.02,0.64,0.07,1.02c0.13,0.47,0.42,0.75,0.87,0.84c0.09,0.19,0.23,0.32,0.43,0.39c0.2,0.07,0.37,0.15,0.5,0.25
			c0.71,0.23,1.29,0.29,1.71,0.17c0.43-0.12,0.93-0.29,1.51-0.53c0.31-0.14,0.65-0.37,1.01-0.7c0.14-0.19,0.3-0.39,0.5-0.6
			c0.2-0.21,0.39-0.41,0.57-0.6c0.45-0.37,0.91-0.91,1.38-1.61c0.47-0.7,0.88-1.29,1.24-1.75c0-0.19,0.11-0.23,0.33-0.14l0.07,0.14
			c0,0.42-0.01,0.96-0.03,1.61c-0.02,0.66,0.01,1.17,0.1,1.54c0.09,0.52,0.29,0.96,0.61,1.33c0.31,0.37,0.69,0.77,1.14,1.19
			c0.09,0.05,0.18,0.09,0.27,0.14c0.09,0.05,0.2,0.05,0.34,0c0.76,0.56,1.59,0.73,2.48,0.49c0.67-0.09,1.23-0.26,1.68-0.49
			c0.45-0.23,0.85-0.54,1.21-0.91c0.18-0.14,0.34-0.29,0.47-0.46c0.13-0.16,0.31-0.32,0.54-0.46c0.85-0.93,1.49-1.73,1.91-2.39
			c0.42-0.65,0.86-1.47,1.31-2.45c0.13-0.37,0.26-0.62,0.37-0.74c0.11-0.12,0.14-0.22,0.1-0.32c0-0.09,0.05-0.12,0.17-0.07
			c0.11,0.05,0.21,0.09,0.3,0.14c0.22,0.09,0.43,0.29,0.6,0.6c0.18,0.3,0.33,0.48,0.47,0.53c0.67,0.37,1.33,0.67,1.98,0.88
			c0.65,0.21,1.35,0.27,2.11,0.18c0.36,0.05,0.7,0.01,1.04-0.11c0.34-0.12,0.64-0.17,0.91-0.17c0.27-0.05,0.48-0.11,0.64-0.18
			c0.16-0.07,0.3-0.13,0.44-0.17c0.13-0.05,0.28-0.11,0.43-0.18c0.16-0.07,0.37-0.15,0.64-0.24c0.36-0.09,0.67-0.22,0.94-0.39
			c0.2-0.12,0.41-0.26,0.61-0.4c-0.1,0.28-0.19,0.58-0.27,0.92c-0.54,1.12-0.74,2.39-0.61,3.79c0,0.52,0.13,1.03,0.4,1.54
			c0.27,0.52,0.65,0.91,1.14,1.19c0.09,0.09,0.31,0.17,0.67,0.24c0.36,0.07,0.65,0.08,0.87,0.04c0.49,0,0.98-0.12,1.48-0.35
			c0.49-0.23,0.92-0.56,1.27-0.98l0.54-0.63c0.22-0.37,0.46-0.65,0.71-0.84c0.24-0.19,0.48-0.47,0.7-0.84
			c0.04-0.19,0.08-0.33,0.1-0.42c0.02-0.09,0.12-0.16,0.3-0.21c0.09-0.05,0.19-0.07,0.3-0.07h0.3c1.03,0,2.17-0.16,3.42-0.49
			c1.25-0.33,2.21-0.65,2.89-0.98c0.54-0.23,0.92-0.4,1.14-0.49c0.22-0.09,0.41-0.19,0.57-0.28c0.16-0.09,0.36-0.22,0.6-0.39
			c0.24-0.16,0.66-0.46,1.24-0.88c0.03-0.02,0.05-0.03,0.07-0.04c-0.15,0.77-0.31,1.53-0.51,2.29c-0.13,0.8-0.33,1.45-0.6,1.96
			c-0.13,0.24-0.25,0.48-0.33,0.74c-0.09,0.26-0.18,0.5-0.27,0.74c-0.13,0.33-0.07,0.59,0.2,0.77c0.36,0.33,0.78,0.56,1.28,0.7
			c0.13,0.09,0.3,0.09,0.5,0c0.2-0.09,0.35-0.23,0.44-0.42c0-0.09,0.01-0.19,0.03-0.28c0.02-0.09,0.03-0.19,0.03-0.28
			c0.18-0.52,0.33-1.02,0.47-1.51c0.14-0.49,0.34-0.97,0.61-1.44c0.13-0.09,0.24-0.26,0.33-0.49c0.18-0.28,0.37-0.57,0.57-0.88
			c0.2-0.3,0.37-0.6,0.5-0.88c0.49-0.65,0.89-1.16,1.21-1.51c0.31-0.35,0.63-0.64,0.94-0.88c0.36-0.33,0.71-0.67,1.04-1.02
			c0.33-0.35,0.71-0.64,1.11-0.88c0.22-0.14,0.46-0.28,0.71-0.42c0.24-0.14,0.48-0.26,0.7-0.35c0.49-0.14,0.87-0.16,1.14-0.07
			c0.14,0.05,0.24,0.06,0.3,0.03c0.07-0.02,0.12-0.01,0.17,0.04h0.13c0.09,0,0.17-0.02,0.24-0.07
			C101.4,83.69,101.41,83.64,101.36,83.59"/>
		<path d="M128.41,90.54c-0.45,0.48-0.92,1.01-1.38,1.58c-0.44,0.54-0.82,1.19-1.13,1.92l-0.26,0.76c0.31-0.04,0.65-0.1,1-0.18
			l0.33-0.07c0.07-0.02,0.15-0.04,0.22-0.06c0.19-0.15,0.45-0.28,0.89-0.44c0.46-0.15,0.87-0.31,1.28-0.52
			c0.39-0.2,0.76-0.43,1.09-0.71l0.68-0.47c0.36-0.22,0.63-0.45,0.88-0.74c0.33-0.39,0.66-0.76,1.01-1.12
			c0.15-0.24,0.29-0.47,0.43-0.69c0.14-0.22,0.26-0.46,0.38-0.7c0.03-0.08,0.08-0.24,0.11-0.4c0.01-0.04,0.01-0.1-0.01-0.17
			c-0.02-0.12-0.03-0.24-0.01-0.36l0.03-0.24c-0.05,0-0.1,0.01-0.16,0.01c-0.13,0-0.27-0.01-0.41-0.04
			c-0.41,0.05-0.78,0.15-1.1,0.32c-0.51,0.27-1.09,0.54-1.74,0.84c-0.55,0.23-0.98,0.52-1.32,0.87c-0.04,0.05-0.09,0.08-0.14,0.12
			L128.41,90.54z M100.96,103.03c-0.14,0-0.29-0.03-0.42-0.08c-0.18-0.07-0.38-0.14-0.59-0.2c-0.42-0.11-0.78-0.29-1.08-0.52
			c-0.47-0.37-0.73-0.91-0.73-1.52c0-0.08,0.01-0.16,0.02-0.23c0.04-0.2,0.07-0.38,0.08-0.53c0.04-0.29,0.11-0.57,0.21-0.85
			l0.38-1.58c0.15-0.62,0.31-1.21,0.5-1.8l0.59-2.13c0.13-0.54,0.29-1.14,0.48-1.75c0.18-0.59,0.36-1.17,0.54-1.73
			c0.09-0.24,0.14-0.4,0.17-0.54c0.02-0.1,0.04-0.22,0.04-0.35c0-0.94,0.2-1.82,0.61-2.6l0.43-1.04c0.06-0.21,0.17-0.52,0.3-0.83
			c0.09-0.23,0.18-0.5,0.26-0.78c0.16-0.51,0.36-1.02,0.6-1.57c0.1-0.26,0.2-0.53,0.28-0.8c0.09-0.29,0.17-0.6,0.26-0.92
			c0.13-0.58,0.29-1.22,0.48-1.83c0.18-0.61,0.39-1.22,0.62-1.85l0.32-1l0.18-0.71c0.15-0.47,0.35-0.86,0.61-1.2
			c-0.02-0.17-0.05-0.27,0-0.43l0.47-1.68l1.16-3.62c0.13-0.4,0.24-0.8,0.35-1.23c0.09-0.38,0.18-0.76,0.26-1.12v-0.01
			c0-0.14,0.02-0.27,0.07-0.4c0.24-0.71,0.42-1.44,0.52-2.16c0.11-0.81,0.24-1.61,0.37-2.42l0.18-1.82c0-0.33,0.03-0.64,0.09-0.95
			c0.04-0.24,0.08-0.47,0.13-0.69c0.03-0.28,0.14-0.63,0.46-0.97c0.3-0.31,0.7-0.49,1.14-0.49c0.15,0,0.29,0.03,0.43,0.09
			c0.18,0.08,0.38,0.14,0.58,0.2c0.34,0.1,0.68,0.25,0.99,0.44c0.06,0.04,0.12,0.08,0.17,0.13c0.82,0.76,0.92,1.53,0.85,2.05
			l-0.28,1.59l-0.12,0.84c-0.05,0.32-0.06,0.6-0.06,0.91c0,0.33-0.04,0.62-0.1,0.87c-0.22,1.07-0.46,2.13-0.7,3.2
			c-0.25,1.1-0.57,2.23-0.94,3.34c-0.08,0.24-0.14,0.49-0.21,0.74c-0.07,0.31-0.16,0.62-0.26,0.93c-0.02,0.05-0.04,0.11-0.06,0.16
			c-0.11,0.22-0.19,0.45-0.26,0.69c-0.09,0.32-0.18,0.62-0.28,0.9l-0.54,1.69c-0.22,0.78-0.47,1.59-0.75,2.38
			c-0.11,0.32-0.22,0.64-0.33,0.96l0.68-0.5c0.45-0.32,0.91-0.6,1.36-0.85c0.34-0.19,0.68-0.44,1.01-0.75
			c0.08-0.07,0.16-0.13,0.25-0.17l0.27-0.14c0.53-0.29,1.09-0.45,1.63-0.45c0.68,0,1.33,0.24,1.92,0.7
			c0.02,0.02,0.05,0.04,0.07,0.06c0.16,0.11,0.3,0.25,0.42,0.43c0.5,0.54,0.55,1.07,0.5,1.44c-0.06,0.4-0.29,0.95-1.06,1.31
			c-0.37,0.15-0.65,0.29-0.91,0.44c-0.28,0.17-0.56,0.36-0.84,0.57l-1.08,0.68c-0.48,0.25-0.85,0.48-1.17,0.72
			c-0.39,0.29-0.79,0.58-1.2,0.86c-0.33,0.22-0.62,0.43-0.87,0.65c-0.29,0.26-0.62,0.53-0.98,0.81c-0.91,0.87-1.77,1.88-2.56,3.01
			c-0.24,0.34-0.3,0.46-0.3,0.47c-0.15,0.44-0.27,0.79-0.37,1.15c-0.12,0.39-0.25,0.79-0.39,1.18c0-0.01,0.01-0.02,0.01-0.02
			c0.01,0,0.01,0.04,0.04,0.11c0.04,0.11,0.07,0.18,0.25,0.23l0.51,0.13c0.1,0.03,0.18,0.04,0.26,0.04c0.57,0,1.14,0.03,1.7,0.07
			c0.15,0.01,0.3,0.02,0.45,0.02c0.29,0,0.59-0.03,0.88-0.08c0.41-0.05,0.8-0.1,1.2-0.15c0.35-0.04,0.69-0.1,0.99-0.18
			c0.24-0.09,0.59-0.18,0.94-0.23c0.25-0.04,0.5-0.1,0.76-0.18c0.04-0.01,0.09-0.02,0.13-0.03c0.45-0.08,0.87-0.2,1.24-0.35l2.73-1
			c0.85-0.31,1.69-0.67,2.51-1.08l0.52-0.3c0.1-0.08,0.23-0.16,0.38-0.22c0.09-0.04,0.19-0.08,0.29-0.14
			c0.11-0.06,0.26-0.15,0.46-0.27c0.18-0.11,0.38-0.17,0.59-0.17c0.08-0.06,0.16-0.12,0.24-0.17c0.05-0.25,0.15-0.49,0.29-0.71
			c0.04-0.06,0.08-0.11,0.12-0.16c0.03-0.23,0.07-0.45,0.12-0.66c0.09-0.34,0.18-0.69,0.26-1.07c0.09-0.41,0.18-0.76,0.28-1.06
			c0.08-0.37,0.25-0.71,0.5-1.01c0.08-0.15,0.17-0.29,0.26-0.43c0-0.03,0.01-0.08,0.01-0.14c0-0.13,0.02-0.25,0.06-0.38
			c0.08-0.26,0.15-0.51,0.22-0.75c0.09-0.33,0.22-0.63,0.38-0.91l0.11-0.3c0.05-0.37,0.12-0.74,0.21-1.1
			c0.1-0.4,0.28-0.81,0.53-1.21c0.03-0.14,0.09-0.28,0.18-0.41c0.13-0.19,0.22-0.43,0.28-0.73c0.11-0.57,0.34-1.15,0.69-1.7
			l0.35-1.09c0.14-0.45,0.28-0.86,0.42-1.24c0.01-0.02,0.02-0.05,0.03-0.07c0.03-0.29,0.12-0.61,0.29-0.96
			c0.14-0.29,0.24-0.53,0.33-0.73c0.04-0.16,0.1-0.37,0.21-0.73c0.14-0.43,0.28-0.88,0.44-1.36c0.16-0.49,0.33-0.94,0.49-1.35
			c0.17-0.44,0.29-0.71,0.34-0.82c-0.01,0,0.01-0.11,0.01-0.23v-0.77c0-0.11,0.01-0.21,0.04-0.32c0.1-0.39,0.09-0.61,0.06-0.73
			c-0.04-0.15-0.04-0.3-0.02-0.46c0.15-1.1,0.88-1.79,1.91-1.79c0.22,0,0.46,0.03,0.71,0.1c0.08,0.02,0.17,0.05,0.24,0.1
			c0,0,0,0.01-0.02,0.01c-0.01,0-0.02,0-0.02,0c0.03,0,0.07,0,0.12,0c0.15,0,0.31,0.03,0.45,0.1c0.68,0.31,1,0.76,1.14,1.16
			c0.08,0.14,0.14,0.27,0.19,0.39c0.2,0.22,0.3,0.51,0.3,0.81c0,0.19-0.02,0.38-0.07,0.56c0,0.07-0.01,0.07-0.02,0.14
			c-0.1,0.55-0.21,1.05-0.32,1.5c-0.13,0.48-0.31,0.93-0.55,1.36L134,68.28c-0.02,0.05-0.03,0.1-0.05,0.15l-0.19,0.44
			c0.01,0.07,0.02,0.15,0.02,0.23c0,0.36-0.15,0.63-0.26,0.82c-0.05,0.09-0.13,0.25-0.25,0.5l-0.04,0.24
			c-0.02,0.1-0.04,0.19-0.08,0.28c-0.61,1.46-1.19,2.95-1.72,4.43c-0.53,1.46-1.04,2.99-1.53,4.52c-0.02,0.05-0.03,0.09-0.05,0.14
			c-0.47,1.03-0.92,2.14-1.33,3.3c-0.25,0.69-0.47,1.38-0.66,2.07c0.34-0.21,0.69-0.37,1.02-0.5c0.42-0.15,0.82-0.28,1.21-0.38
			c0.79-0.28,1.68-0.49,2.57-0.59c0.09-0.02,0.25-0.03,0.43-0.03c0.3,0,0.64,0.04,1.04,0.11c0.58,0.11,1.12,0.33,1.61,0.64
			c0.48,0.16,0.92,0.45,1.31,0.85l0.91,0.95c0.11,0.12,0.2,0.26,0.26,0.41c0.13,0.34,0.21,0.68,0.24,1.02
			c0.01,0.13,0.04,0.25,0.09,0.37c0.06,0.14,0.08,0.3,0.08,0.45c0,0.42-0.03,0.82-0.08,1.17c-0.05,0.32-0.12,0.68-0.22,1.08
			c-0.02,0.07-0.04,0.14-0.07,0.2c-0.22,0.51-0.5,0.99-0.82,1.42c-0.3,0.39-0.64,0.79-1.03,1.19l-1.67,1.75
			c-0.26,0.27-0.56,0.49-0.89,0.64c-0.38,0.24-0.74,0.44-1.08,0.6c-0.28,0.12-0.55,0.27-0.82,0.43c-0.61,0.3-1.13,0.52-1.65,0.72
			c-0.54,0.2-1.15,0.36-1.81,0.46c-0.45,0.15-0.89,0.22-1.29,0.22c-0.35,0-0.68-0.05-0.99-0.16c-0.79-0.14-1.38-0.33-1.83-0.57
			c-0.38-0.09-0.69-0.31-0.89-0.63c-0.08-0.11-0.16-0.25-0.21-0.42c-0.16-0.06-0.32-0.14-0.47-0.26c-0.26-0.12-0.53-0.29-0.83-0.51
			c-0.31-0.22-0.55-0.41-0.74-0.55c-0.04-0.04-0.08-0.07-0.12-0.11c-0.46-0.48-0.58-1.14-0.33-1.71l0.3-1.14
			c0.02-0.06,0.04-0.11,0.06-0.17c0.14-0.33,0.27-0.66,0.38-0.99c-0.15,0.07-0.3,0.14-0.46,0.21l-0.67,0.28
			c-0.2,0.09-0.46,0.21-0.79,0.38c-0.4,0.21-0.72,0.35-0.97,0.42c-0.5,0.19-0.97,0.35-1.42,0.49c-0.44,0.14-0.9,0.28-1.38,0.41
			c-0.33,0.13-0.66,0.2-0.96,0.2c0,0-0.05,0-0.17,0.05c-0.04,0.02-0.07,0.03-0.11,0.04c-0.38,0.11-0.77,0.19-1.13,0.22
			c-0.23,0.02-0.49,0.07-0.79,0.14c-0.29,0.06-0.55,0.11-0.83,0.16c-0.28,0.05-0.56,0.08-0.81,0.08c-0.19,0.03-0.38,0.05-0.59,0.05
			c-0.12,0-0.24-0.01-0.36-0.02c-0.23-0.02-0.45-0.03-0.64-0.03c-0.27,0-0.52-0.01-0.77-0.04c-0.16-0.02-0.33-0.03-0.51-0.03
			c-0.04,0-0.08,0-0.12-0.01c-1.2-0.13-2.32-0.47-3.36-1.03c-0.05,0.18-0.11,0.35-0.15,0.52c-0.15,0.54-0.29,1.11-0.42,1.69
			L103,99.44c-0.09,0.33-0.18,0.65-0.27,0.96c-0.09,0.31-0.18,0.61-0.27,0.9l-0.18,0.71c-0.05,0.2-0.15,0.38-0.3,0.53
			C101.86,102.66,101.5,103.03,100.96,103.03"/>
		<path d="M137.29,88.01c-0.02-0.23-0.08-0.47-0.17-0.7c-0.31-0.33-0.62-0.64-0.91-0.95c-0.29-0.3-0.62-0.5-0.97-0.6
			c-0.4-0.28-0.85-0.47-1.34-0.56c-0.49-0.09-0.87-0.12-1.14-0.07c-0.81,0.09-1.61,0.28-2.42,0.56c-0.36,0.09-0.73,0.21-1.11,0.35
			c-0.38,0.14-0.77,0.35-1.17,0.63v0.07c-0.18,0.14-0.55,0.38-1.11,0.7c-0.56,0.33-0.95,0.56-1.17,0.7l0.2-0.49
			c0.09-0.09,0.14-0.2,0.14-0.32c0-0.12,0.04-0.27,0.13-0.45h-0.07l0.2-0.42c0.27-1.17,0.62-2.35,1.04-3.54
			c0.42-1.19,0.88-2.33,1.38-3.4c0.49-1.54,1.01-3.06,1.54-4.56c0.54-1.5,1.12-2.99,1.75-4.49l0.07-0.42
			c0.18-0.37,0.3-0.62,0.37-0.74c0.07-0.12,0.1-0.19,0.1-0.21c0-0.02-0.01-0.06-0.03-0.1c-0.02-0.05-0.01-0.19,0.03-0.42l0.27-0.63
			l0.47-1.68c0.22-0.37,0.39-0.77,0.5-1.19c0.11-0.42,0.21-0.89,0.3-1.4c0-0.05,0.01-0.12,0.03-0.21c0.02-0.09,0.03-0.19,0.03-0.28
			c-0.09-0.09-0.16-0.2-0.2-0.32c-0.05-0.12-0.11-0.25-0.2-0.39c-0.05-0.23-0.23-0.42-0.54-0.56c-0.18,0-0.3-0.01-0.37-0.04
			c-0.07-0.02-0.14-0.06-0.23-0.11c-0.72-0.19-1.12,0.05-1.21,0.7c0.09,0.37,0.07,0.82-0.07,1.33v0.77c0,0.28-0.04,0.54-0.13,0.77
			c-0.05,0.09-0.15,0.34-0.3,0.74c-0.16,0.4-0.31,0.83-0.47,1.3c-0.16,0.47-0.3,0.91-0.44,1.33c-0.13,0.42-0.2,0.66-0.2,0.7
			c-0.09,0.24-0.23,0.54-0.4,0.91c-0.18,0.38-0.23,0.61-0.14,0.7c0,0.05-0.04,0.12-0.13,0.21c-0.13,0.38-0.27,0.77-0.4,1.19
			c-0.13,0.42-0.27,0.84-0.4,1.26c-0.31,0.47-0.52,0.94-0.6,1.4c-0.09,0.47-0.25,0.87-0.47,1.19v0.14
			c-0.27,0.37-0.45,0.74-0.54,1.09c-0.09,0.35-0.16,0.72-0.2,1.09l-0.2,0.56c-0.13,0.19-0.23,0.41-0.3,0.67
			c-0.07,0.26-0.15,0.53-0.24,0.81c0,0.37-0.06,0.63-0.17,0.77c-0.11,0.14-0.21,0.3-0.3,0.49c-0.18,0.19-0.29,0.4-0.33,0.63
			c-0.09,0.28-0.18,0.62-0.27,1.02c-0.09,0.4-0.18,0.76-0.27,1.09c-0.05,0.19-0.08,0.39-0.1,0.6c-0.02,0.21-0.12,0.41-0.3,0.6
			c-0.09,0.14-0.14,0.29-0.14,0.46c0,0.13-0.03,0.26-0.05,0.4c-0.21,0.05-0.41,0.15-0.62,0.3c-0.22,0.16-0.45,0.24-0.67,0.24
			c-0.22,0.14-0.4,0.25-0.54,0.32c-0.13,0.07-0.26,0.13-0.37,0.18c-0.11,0.05-0.14,0.07-0.1,0.07l-0.74,0.42
			c-0.85,0.42-1.72,0.8-2.62,1.12c-0.9,0.33-1.79,0.66-2.68,0.98c-0.45,0.19-0.94,0.33-1.47,0.42c-0.31,0.09-0.62,0.16-0.91,0.21
			c-0.29,0.05-0.57,0.12-0.84,0.21c-0.36,0.09-0.74,0.16-1.14,0.21c-0.4,0.05-0.78,0.09-1.14,0.14c-0.54,0.09-1.07,0.12-1.61,0.07
			c-0.54-0.05-1.07-0.07-1.61-0.07c-0.18,0-0.36-0.02-0.54-0.07c-0.18-0.05-0.36-0.09-0.54-0.14c-0.49-0.14-0.83-0.44-1.01-0.91
			c-0.13-0.33-0.16-0.65-0.07-0.98c0.13-0.37,0.26-0.75,0.37-1.12c0.11-0.37,0.24-0.75,0.37-1.12c0.04-0.19,0.2-0.47,0.47-0.84
			c0.85-1.22,1.77-2.29,2.75-3.23c0.36-0.28,0.68-0.55,0.97-0.81c0.29-0.26,0.62-0.5,0.97-0.74c0.4-0.28,0.79-0.56,1.17-0.84
			c0.38-0.28,0.79-0.54,1.24-0.77l1-0.63c0.31-0.23,0.63-0.44,0.94-0.63c0.31-0.19,0.65-0.35,1.01-0.49
			c0.49-0.23,0.54-0.54,0.13-0.91c-0.05-0.09-0.09-0.15-0.13-0.17c-0.05-0.02-0.09-0.06-0.13-0.11c-0.72-0.56-1.5-0.61-2.35-0.14
			L113.24,77c-0.4,0.38-0.82,0.68-1.24,0.91c-0.43,0.23-0.84,0.49-1.24,0.77l-2.21,1.61L107.6,81l-0.14,0.07
			c0-0.05-0.01-0.08-0.03-0.1c-0.02-0.02-0.03-0.06-0.03-0.11l0.47-1.68c0.27-0.8,0.54-1.58,0.81-2.35
			c0.27-0.77,0.51-1.55,0.74-2.35c0.09-0.28,0.18-0.56,0.27-0.84c0.09-0.28,0.18-0.56,0.27-0.84c0.09-0.28,0.18-0.57,0.27-0.88
			c0.09-0.3,0.2-0.6,0.33-0.88c0.09-0.28,0.17-0.56,0.24-0.84c0.07-0.28,0.14-0.56,0.24-0.84c0.36-1.07,0.66-2.15,0.91-3.23
			c0.24-1.08,0.48-2.15,0.7-3.23c0.05-0.14,0.07-0.33,0.07-0.56c0-0.37,0.02-0.71,0.07-1.02c0.04-0.3,0.09-0.62,0.13-0.95l0.27-1.54
			c0.04-0.33-0.11-0.65-0.47-0.98c-0.22-0.14-0.46-0.24-0.7-0.32c-0.25-0.07-0.48-0.15-0.71-0.25c-0.13,0-0.25,0.05-0.33,0.14
			c-0.09,0.09-0.13,0.19-0.13,0.28c-0.05,0.24-0.09,0.48-0.14,0.74c-0.05,0.26-0.07,0.52-0.07,0.81l-0.2,1.96
			c-0.13,0.8-0.26,1.59-0.37,2.38c-0.11,0.8-0.3,1.59-0.57,2.39v0.14c-0.09,0.42-0.19,0.85-0.3,1.3c-0.11,0.44-0.23,0.88-0.37,1.3
			l-1.14,3.58l-0.47,1.68c0.04,0.33-0.02,0.61-0.2,0.84c-0.18,0.23-0.31,0.49-0.4,0.77l-0.2,0.77l-0.34,1.05
			c-0.22,0.61-0.42,1.2-0.6,1.79c-0.18,0.59-0.34,1.18-0.47,1.79c-0.09,0.33-0.18,0.64-0.27,0.95c-0.09,0.3-0.2,0.62-0.33,0.95
			c-0.23,0.51-0.4,0.98-0.54,1.4c-0.09,0.33-0.19,0.63-0.3,0.91c-0.11,0.28-0.21,0.56-0.3,0.84l-0.47,1.12
			c-0.31,0.61-0.47,1.29-0.47,2.04c0,0.23-0.02,0.44-0.07,0.63c-0.05,0.19-0.11,0.4-0.2,0.63c-0.18,0.56-0.36,1.13-0.54,1.72
			c-0.18,0.59-0.33,1.16-0.47,1.72l-0.6,2.17c-0.18,0.56-0.33,1.12-0.47,1.68c-0.13,0.56-0.27,1.12-0.4,1.68
			c-0.09,0.23-0.14,0.44-0.17,0.63c-0.02,0.19-0.05,0.4-0.1,0.63c0,0.24,0.09,0.42,0.27,0.56c0.18,0.14,0.4,0.24,0.67,0.32
			c0.27,0.07,0.52,0.15,0.74,0.24c0.04,0,0.11-0.05,0.2-0.14l0.2-0.77c0.09-0.28,0.18-0.57,0.27-0.88c0.09-0.3,0.18-0.62,0.27-0.95
			l1.07-3.79c0.14-0.61,0.28-1.19,0.44-1.75c0.15-0.56,0.35-1.15,0.57-1.75c0.04,0,0.07-0.02,0.07-0.07l0.14-0.07
			c0.18,0.09,0.31,0.19,0.4,0.28c1.07,0.7,2.26,1.12,3.56,1.26c0.22,0,0.44,0.01,0.64,0.04c0.2,0.02,0.41,0.04,0.64,0.04
			s0.47,0.01,0.74,0.04c0.27,0.02,0.51,0.01,0.74-0.04c0.22,0,0.47-0.02,0.74-0.07c0.27-0.05,0.51-0.09,0.74-0.14
			c0.36-0.09,0.68-0.15,0.97-0.18c0.29-0.02,0.59-0.08,0.91-0.17c0.22-0.09,0.42-0.14,0.6-0.14c0.18,0,0.38-0.05,0.61-0.14
			c0.49-0.14,0.96-0.28,1.41-0.42c0.45-0.14,0.92-0.3,1.41-0.49c0.18-0.05,0.45-0.16,0.81-0.35c0.36-0.19,0.65-0.33,0.87-0.42
			c0.22-0.09,0.45-0.19,0.67-0.28c0.22-0.09,0.45-0.2,0.67-0.32c0.22-0.12,0.51-0.29,0.87-0.53c0.27-0.14,0.55-0.28,0.84-0.42
			c0.12-0.06,0.23-0.14,0.35-0.21c-0.1,0.42-0.21,0.84-0.32,1.26c-0.22,0.89-0.51,1.75-0.87,2.6l-0.33,1.26
			c-0.09,0.14-0.07,0.28,0.07,0.42c0.18,0.14,0.42,0.32,0.7,0.53c0.29,0.21,0.55,0.36,0.77,0.45c0.36,0.33,0.65,0.24,0.87-0.28
			c0.04-0.05,0.07-0.09,0.07-0.14l0.54-1.54c0.36-0.84,0.79-1.58,1.31-2.21c0.51-0.63,1.02-1.2,1.51-1.72l0.74-0.56
			c0.45-0.47,1.01-0.84,1.68-1.12c0.63-0.28,1.19-0.55,1.68-0.81c0.49-0.26,1.05-0.41,1.68-0.46c0.18,0.05,0.35,0.06,0.5,0.04
			c0.16-0.02,0.32,0.01,0.5,0.11c0.36,0.14,0.58,0.42,0.67,0.84l-0.07,0.63c0.04,0.23,0.04,0.46,0,0.67
			c-0.05,0.21-0.11,0.43-0.2,0.67c-0.13,0.28-0.28,0.55-0.43,0.81c-0.16,0.26-0.33,0.53-0.5,0.81c-0.36,0.37-0.71,0.76-1.04,1.16
			c-0.34,0.4-0.71,0.71-1.11,0.95l-0.6,0.42c-0.4,0.33-0.84,0.61-1.31,0.84c-0.47,0.23-0.93,0.42-1.38,0.56
			c-0.36,0.14-0.57,0.25-0.64,0.32c-0.07,0.07-0.28,0.15-0.64,0.25l-0.34,0.07c-0.45,0.09-0.86,0.16-1.24,0.21
			c-0.38,0.05-0.75,0.03-1.11-0.07h-0.2v0.28c0,0.19,0.02,0.28,0.07,0.28c0.05,0.14,0.16,0.21,0.33,0.21
			c0.36,0.24,0.94,0.42,1.75,0.56c0.49,0.19,1.07,0.16,1.74-0.07c0.63-0.09,1.19-0.23,1.68-0.42c0.49-0.19,0.98-0.4,1.48-0.63
			c0.31-0.19,0.62-0.35,0.94-0.49c0.31-0.14,0.65-0.33,1.01-0.56c0.22-0.09,0.43-0.23,0.61-0.42c0.18-0.19,0.38-0.4,0.6-0.63
			l1.07-1.12c0.36-0.37,0.67-0.74,0.94-1.09c0.27-0.35,0.49-0.74,0.67-1.16c0.09-0.37,0.15-0.7,0.2-0.98
			c0.04-0.28,0.07-0.61,0.07-0.98C137.37,88.48,137.32,88.25,137.29,88.01"/>
		<path d="M147.31,88.54c0.15-0.28,0.28-0.62,0.41-1c0.27-0.8,0.54-1.5,0.82-2.08c0.07-0.26,0.11-0.52,0.1-0.8
			c-0.13,0.07-0.25,0.12-0.39,0.17c-0.36,0.3-0.65,0.63-0.88,0.99c-0.3,0.46-0.55,0.92-0.74,1.36c-0.02,0.05-0.05,0.09-0.07,0.14
			c-0.1,0.17-0.15,0.34-0.16,0.56c0.09,0.06,0.18,0.14,0.26,0.23c0.14,0.09,0.26,0.19,0.36,0.31
			C147.07,88.44,147.17,88.48,147.31,88.54 M166.63,85.58c-0.3,0.08-0.61,0.14-0.91,0.2c-0.22,0.04-0.44,0.14-0.68,0.29
			c-0.03,0.02-0.06,0.04-0.09,0.06c-0.69,0.36-1.34,0.85-1.92,1.46c-0.09,0.09-0.19,0.17-0.3,0.23c-0.06,0.09-0.21,0.24-0.29,0.3
			c-0.8,0.64-1.53,1.55-2.16,2.69c0.14-0.03,0.26-0.08,0.36-0.15c0.06-0.04,0.13-0.08,0.2-0.11c1.16-0.5,2.21-1.22,3.13-2.14
			l1.67-1.46c0.03-0.03,0.06-0.05,0.1-0.08c0.15-0.11,0.29-0.2,0.42-0.28c0.25-0.28,0.48-0.54,0.7-0.79
			c-0.02-0.02-0.03-0.04-0.05-0.05L166.63,85.58z M144.98,91.38c-0.02,0.11-0.03,0.22-0.03,0.33c-0.01,0.27-0.02,0.52-0.02,0.78
			c0.23-0.22,0.44-0.43,0.65-0.62c0.03-0.03,0.07-0.07,0.12-0.13c-0.1-0.05-0.21-0.1-0.32-0.15
			C145.23,91.53,145.1,91.46,144.98,91.38 M183.29,102.33c-0.22,0-0.53-0.05-0.84-0.28c-0.81-0.31-1.09-0.48-1.27-0.61
			c-0.34-0.25-0.61-0.67-0.87-1.33c-0.43-0.81-0.67-1.83-0.75-3.11c-0.07-1.14-0.1-2.15-0.1-3.02l0.06-1.16
			c-0.14,0.09-0.28,0.17-0.42,0.25c-1.56,0.88-3.07,1.35-4.5,1.41c-0.11,0-0.26,0.03-0.48,0.06c-0.17,0.03-0.31,0.04-0.44,0.04
			c-0.23,0-0.43-0.03-0.62-0.1c-0.44-0.03-0.86-0.13-1.23-0.3c-0.46-0.24-0.86-0.48-1.27-0.78c-0.47-0.33-0.86-0.76-1.16-1.25
			c-0.35-0.48-0.65-1-0.9-1.56c-0.02,0.02-0.04,0.04-0.06,0.06c-0.67,0.56-1.32,1.11-1.96,1.67c-0.68,0.59-1.38,1.14-2.08,1.62
			c-0.51,0.32-0.97,0.59-1.41,0.83c-0.5,0.27-1.04,0.47-1.61,0.59c-0.58,0.21-1.22,0.31-1.92,0.32c-0.09,0.01-0.18,0.01-0.27,0.01
			c-0.67,0-1.89-0.26-2.57-1.96l-0.51-1c-0.17-0.36-0.28-0.73-0.33-1.11c-0.45,0.15-0.97,0.3-1.54,0.45
			c-1.32,0.35-2.55,0.52-3.66,0.53c-0.02,0.05-0.04,0.09-0.07,0.14c-0.3,0.5-0.63,0.9-1,1.17c-0.09,0.07-0.23,0.21-0.41,0.51
			c-0.04,0.06-0.07,0.11-0.12,0.16l-0.54,0.63c-0.46,0.54-1.02,0.97-1.66,1.28c-0.6,0.29-1.23,0.44-1.85,0.46
			c-0.12,0.02-0.26,0.03-0.4,0.03c-0.24,0-0.49-0.03-0.78-0.08c-0.37-0.07-0.78-0.18-1.1-0.43c-0.64-0.39-1.15-0.93-1.5-1.61
			c-0.35-0.67-0.53-1.36-0.54-2.05c-0.14-1.55,0.08-2.99,0.67-4.27c0.09-0.38,0.2-0.72,0.32-1.04l0.36-1
			c0.01-0.04,0.03-0.08,0.05-0.11c0.03-0.07,0.06-0.12,0.07-0.17c0.06-0.33,0.23-0.65,0.48-0.91c0.1-0.13,0.23-0.38,0.32-0.69
			c0.02-0.08,0.05-0.15,0.09-0.22c0.41-0.8,0.81-1.32,1.27-1.65c0.15-0.11,0.43-0.35,0.91-0.91c0.06-0.07,0.12-0.13,0.19-0.18
			l0.67-0.49c0.86-0.52,1.54-0.78,2.15-0.84c0.38-0.05,0.77-0.08,1.12-0.08c0.4,0,0.71,0.03,0.95,0.11
			c0.33,0.08,0.66,0.22,0.98,0.42c0.36,0.23,0.64,0.53,0.84,0.91c0.29,0.35,0.49,0.74,0.59,1.16c0.07,0.3,0.13,0.57,0.18,0.82
			c0.06,0.26,0.07,0.58,0.03,0.94c0.09,0.76,0.07,1.33-0.06,1.79c-0.1,0.33-0.22,0.69-0.36,1.09c-0.12,0.34-0.21,0.63-0.28,0.85
			c0.25-0.04,0.49-0.09,0.71-0.13c0.71-0.14,1.37-0.28,1.97-0.44c0.57-0.15,1.12-0.33,1.63-0.55c0.43-0.18,0.89-0.39,1.38-0.62
			c0.68-0.82,1.37-1.57,2.09-2.26c0.74-0.72,1.52-1.37,2.34-1.92l1.18-0.73c0.81-0.49,1.68-0.73,2.59-0.73
			c0.88,0,1.41,0.38,1.7,0.72c0.54,0.53,0.94,1.16,1.21,1.85c0.26-0.12,0.5-0.15,0.66-0.15c0.3,0,0.6,0.09,0.89,0.26l0.54,0.28
			c0.45,0.24,0.78,0.56,0.98,0.98c0.04,0.08,0.07,0.17,0.09,0.26c0.05,0.21,0.09,0.38,0.11,0.51c0.06,0.31,0.04,0.63-0.04,0.99
			c-0.02,0.15-0.05,0.42-0.07,0.71c-0.02,0.31-0.03,0.6-0.03,0.9c0,0.47,0.07,0.9,0.21,1.3c0.15,0.07,0.29,0.16,0.41,0.27
			c0.38,0.24,0.76,0.36,1.15,0.36c0.61-0.02,1.15-0.14,1.69-0.37c0.43-0.17,0.78-0.29,1.09-0.37c0.08-0.02,0.26-0.09,0.57-0.28
			c0.6-0.48,1.13-0.85,1.57-1.11c0.19-0.11,0.53-0.37,1.03-0.99c0.14-0.15,0.3-0.34,0.5-0.59c0.2-1.02,0.38-1.78,0.55-2.36
			l0.11-0.54c0.04-0.27,0.11-0.58,0.19-0.86c0.06-0.2,0.1-0.4,0.14-0.6c0.02-0.11,0.06-0.21,0.1-0.31c0.02-0.05,0.39-1.34,0.39-1.34
			c0.13-0.46,0.27-0.93,0.4-1.42c0.15-0.55,0.3-1,0.45-1.37c0.29-0.66,0.33-0.86,0.34-0.88c0.06-0.3,0.21-0.71,0.48-1.32
			c0.03-0.06,0.05-0.11,0.09-0.16c0.07-0.1,0.14-0.25,0.24-0.45l-1.11,0.42c-0.3,0.13-0.51,0.19-0.71,0.21l-0.17,0.09
			c-0.36,0.16-0.67,0.26-1.03,0.34c-0.28,0.07-0.6,0.15-0.95,0.24c-0.09,0.02-0.18,0.04-0.28,0.04c-0.42,0-0.84-0.16-1.24-0.48
			c-0.3-0.19-0.51-0.48-0.61-0.81c-0.07-0.23-0.11-0.58,0.04-0.99c-0.12-1.06,0.48-1.69,1.13-1.84c0.21-0.05,0.41-0.08,0.6-0.09
			l0.88-0.32c0.23-0.25,0.55-0.4,0.9-0.4c0.03,0,0.06,0,0.09,0c0.21-0.09,0.4-0.17,0.58-0.21c0.13-0.06,0.25-0.11,0.36-0.14
			c0.32-0.19,0.66-0.33,1-0.42c0.25-0.06,0.5-0.11,0.73-0.16l0.12-0.06c0.2-0.1,0.41-0.17,0.63-0.19c0.13-0.03,0.24-0.06,0.35-0.11
			c0.15-0.06,0.32-0.13,0.51-0.21l0.38-0.98l2.95-7.85c0.06-0.13,0.08-0.2,0.1-0.28c0.05-0.19,0.13-0.43,0.24-0.71
			c0.02-0.06,0.05-0.12,0.08-0.17l0.17-0.29c0.19-0.42,0.67-0.99,1.82-0.99c0.71,0,1.29,0.18,1.72,0.54
			c0.14,0.11,0.24,0.26,0.32,0.42l0.16,0.33c0.05,0.1,0.1,0.2,0.16,0.29c0.03,0.05,0.06,0.1,0.08,0.15
			c0.07,0.14,0.14,0.36,0.21,0.64c0.12,0.52,0.04,1.03-0.22,1.45c-0.69,1.27-1.32,2.6-1.85,3.88c-0.29,0.71-0.6,1.45-0.92,2.21
			c0.13-0.03,0.26-0.05,0.37-0.07c0.48-0.09,1.14-0.24,1.95-0.47c0.1-0.03,0.19-0.04,0.29-0.04c0.12,0,0.18-0.03,0.22-0.05
			c0.27-0.14,0.54-0.21,0.82-0.21c0.16,0,0.33,0.02,0.48,0.07c0.03,0,0.1,0,0.11,0c0.03-0.01,0.05-0.02,0.08-0.03
			c0.29-0.1,0.58-0.15,0.88-0.15c0.23,0,0.47,0.03,0.7,0.1c0.08-0.02,0.16-0.02,0.24-0.03c0.19-0.06,0.39-0.09,0.59-0.09
			c0.28,0,0.55,0.06,0.81,0.18c0.07,0.04,0.16,0.06,0.26,0.06c0.06-0.01,0.13-0.02,0.18-0.02c0.35,0,0.71,0.18,0.93,0.47
			c0.02,0.03,0.04,0.06,0.06,0.08c0.2,0.17,0.33,0.39,0.4,0.59c0.12,0.37,0.05,0.86-0.17,1.17c-0.05,0.08-0.11,0.14-0.18,0.21
			c-0.04,0.11-0.09,0.2-0.14,0.28c-0.16,0.24-0.41,0.42-0.69,0.49c-0.42,0.11-0.83,0.18-1.2,0.21c-0.2,0.02-0.43,0.07-0.68,0.17
			c-0.13,0.05-0.27,0.08-0.41,0.08c-0.18,0-0.35,0.01-0.52,0.03c-0.09,0.01-0.21,0.05-0.33,0.1l-0.18,0.1
			c-0.16,0.08-0.33,0.13-0.51,0.13c-0.03,0-0.07,0-0.1-0.01c-0.07-0.01-0.15-0.01-0.23-0.01c-0.29,0-0.61,0.05-0.94,0.15
			c-0.57,0.17-1.13,0.3-1.67,0.4c-0.19,0.07-0.35,0.13-0.46,0.18c-0.17,0.08-0.37,0.16-0.6,0.26c-0.07,0.03-0.15,0.05-0.23,0.07
			l-1.06,0.19l-0.89,0.31c-0.03,0.07-0.06,0.15-0.09,0.26c-0.11,0.31-0.21,0.65-0.32,1c-0.13,0.42-0.26,0.81-0.41,1.17
			c-0.12,0.29-0.2,0.49-0.26,0.62c-0.54,1.64-1.08,3.19-1.6,4.61c-0.52,1.42-0.99,2.88-1.37,4.34c-0.39,1.48-0.72,3.06-0.98,4.68
			c-0.26,1.61-0.39,3.43-0.39,5.42c0,1.09,0.02,1.86,0.06,2.3c0.04,0.43,0.08,0.63,0.09,0.69c0.03,0.04,0.07,0.07,0.1,0.11
			c0.24,0.1,0.47,0.23,0.68,0.4c0.41,0.34,0.67,0.73,0.78,1.18c0.14,0.6-0.03,1.2-0.47,1.66
			C184.62,102.13,184.06,102.33,183.29,102.33"/>
		<path d="M149.61,85.91c-0.27,0.56-0.54,1.24-0.81,2.03c-0.27,0.8-0.58,1.43-0.94,1.89c-0.09,0.09-0.35,0.06-0.77-0.11
			c-0.43-0.16-0.71-0.29-0.84-0.39c-0.05-0.09-0.12-0.17-0.23-0.24c-0.11-0.07-0.17-0.13-0.17-0.18c-0.49-0.23-0.69-0.56-0.61-0.98
			c0-0.47,0.11-0.89,0.34-1.26c0.22-0.51,0.5-1.03,0.84-1.54c0.33-0.51,0.77-0.98,1.31-1.4c0.22-0.05,0.42-0.14,0.6-0.28
			c0.18-0.19,0.49-0.21,0.94-0.07c0.45,0.14,0.6,0.4,0.47,0.77C149.83,84.76,149.78,85.35,149.61,85.91 M147.29,91.21
			c-0.02,0.07-0.08,0.15-0.17,0.24c-0.22,0.61-0.49,1.05-0.81,1.33c-0.31,0.28-0.65,0.61-1.01,0.98c-1.12,0.89-1.63,0.8-1.54-0.28
			v-0.21c0-0.52,0.01-1.05,0.03-1.61c0.02-0.56,0.17-1.1,0.43-1.61c0.05-0.14,0.11-0.29,0.2-0.46c0.09-0.16,0.15-0.2,0.2-0.11
			c0.27,0.42,0.67,0.76,1.21,1.02c0.54,0.26,0.91,0.43,1.14,0.53c0.18-0.05,0.28-0.05,0.3,0C147.31,91.08,147.31,91.13,147.29,91.21
			 M189.8,71.81l1.14-0.21c0.22-0.09,0.41-0.18,0.57-0.25c0.16-0.07,0.37-0.15,0.64-0.24c0.54-0.09,1.09-0.22,1.65-0.39
			c0.56-0.16,1.08-0.22,1.58-0.18l0.27-0.14c0.22-0.09,0.43-0.15,0.64-0.17c0.2-0.02,0.41-0.04,0.64-0.04
			c0.36-0.14,0.69-0.22,1.01-0.25c0.31-0.02,0.65-0.08,1.01-0.17c0.04,0,0.04-0.06,0-0.18c-0.05-0.12,0.04-0.22,0.27-0.32
			c0.09,0,0.12-0.04,0.1-0.11c-0.02-0.07-0.1-0.11-0.24-0.11c-0.05,0-0.06-0.05-0.03-0.14c0.02-0.09-0.01-0.12-0.1-0.07
			c-0.31,0-0.59-0.06-0.84-0.18c-0.25-0.12-0.5-0.11-0.77,0.04c-0.09-0.05-0.22-0.02-0.4,0.07c-0.4-0.19-0.81-0.21-1.21-0.07
			c-0.09,0.09-0.2,0.13-0.34,0.11c-0.14-0.02-0.25-0.01-0.33,0.04c-0.22-0.14-0.45-0.15-0.67-0.04c-0.22,0.12-0.47,0.18-0.74,0.18
			c-0.85,0.23-1.53,0.4-2.05,0.49c-0.52,0.09-1.24,0.26-2.18,0.49c-0.05-0.05-0.12-0.06-0.23-0.04c-0.11,0.03-0.13-0.01-0.03-0.1
			c0.62-1.45,1.21-2.83,1.74-4.14c0.54-1.31,1.19-2.67,1.95-4.07c0.09-0.14,0.11-0.3,0.07-0.49c-0.05-0.19-0.09-0.33-0.13-0.42
			c-0.09-0.14-0.17-0.28-0.24-0.42c-0.07-0.14-0.12-0.25-0.17-0.35c-0.23-0.19-0.56-0.28-1.01-0.28c-0.45,0-0.72,0.12-0.81,0.35
			l-0.2,0.35c-0.09,0.23-0.16,0.43-0.2,0.6c-0.05,0.16-0.09,0.29-0.13,0.39l-2.95,7.86l-0.4,1.05v0.07
			c-0.04,0.05-0.07,0.09-0.07,0.14c0,0.09-0.16,0.21-0.47,0.35c-0.22,0.09-0.43,0.18-0.6,0.25c-0.18,0.07-0.38,0.13-0.6,0.17
			c-0.09,0-0.18,0.03-0.27,0.07c-0.09,0.05-0.18,0.09-0.27,0.14c-0.27,0.05-0.55,0.11-0.84,0.18c-0.29,0.07-0.57,0.2-0.84,0.39
			c-0.09,0-0.23,0.05-0.4,0.14c-0.22,0.05-0.52,0.16-0.87,0.35c-0.14-0.09-0.23-0.11-0.27-0.04c-0.04,0.07-0.09,0.13-0.13,0.17
			l-1.34,0.49c-0.18,0-0.37,0.02-0.57,0.07c-0.2,0.05-0.28,0.24-0.24,0.56l0.07,0.07c0.05,0.05,0.01,0.17-0.1,0.39
			c-0.11,0.21-0.08,0.36,0.1,0.46c0.23,0.19,0.43,0.28,0.61,0.28c0.36-0.09,0.68-0.17,0.97-0.24c0.29-0.07,0.55-0.15,0.77-0.25
			c0.18-0.09,0.29-0.15,0.33-0.17c0.05-0.02,0.08-0.04,0.1-0.04h0.13c0.07,0,0.21-0.05,0.44-0.14l1.88-0.7l1.21-0.42
			c0.04-0.14,0.11-0.16,0.2-0.07h0.07l0.07-0.07c0,0.14-0.05,0.35-0.14,0.63c-0.09,0.28-0.2,0.59-0.34,0.91
			c-0.13,0.33-0.27,0.63-0.4,0.91c-0.14,0.28-0.25,0.49-0.33,0.63c-0.23,0.52-0.36,0.88-0.4,1.09c-0.05,0.21-0.18,0.57-0.4,1.09
			c-0.13,0.33-0.27,0.74-0.4,1.23c-0.13,0.49-0.27,0.97-0.4,1.44c-0.13,0.47-0.25,0.85-0.33,1.16c-0.09,0.3-0.13,0.43-0.13,0.39
			c-0.05,0.24-0.1,0.47-0.17,0.7c-0.07,0.24-0.12,0.49-0.17,0.77l-0.14,0.63c-0.18,0.61-0.37,1.44-0.57,2.49
			c0,0.02-0.01,0.03-0.01,0.05c-0.33,0.41-0.57,0.69-0.69,0.82c-0.49,0.61-0.94,1.03-1.34,1.26c-0.4,0.23-0.9,0.59-1.48,1.05
			c-0.36,0.23-0.67,0.39-0.94,0.46c-0.27,0.07-0.58,0.17-0.94,0.32c-0.67,0.28-1.34,0.43-2.01,0.46c-0.67,0.02-1.32-0.18-1.95-0.6
			c-0.09-0.09-0.19-0.15-0.3-0.17s-0.21-0.08-0.3-0.18c-0.31-0.65-0.47-1.38-0.47-2.17c0-0.33,0.01-0.65,0.03-0.98
			c0.02-0.33,0.05-0.63,0.1-0.91c0.05-0.19,0.06-0.34,0.03-0.46c-0.02-0.12-0.06-0.27-0.1-0.46c-0.09-0.19-0.25-0.34-0.47-0.46
			c-0.22-0.12-0.43-0.22-0.6-0.32c-0.31-0.19-0.58-0.12-0.81,0.21c-0.36,0.52-0.7,0.96-1.04,1.33c-0.33,0.38-0.68,0.77-1.04,1.19
			c-0.09,0.1-0.19,0.18-0.3,0.25c-0.11,0.07-0.24,0.15-0.37,0.24l-1.61,1.4c-1.03,1.03-2.19,1.82-3.49,2.38
			c-0.27,0.19-0.57,0.31-0.91,0.35c-0.33,0.05-0.66,0.12-0.97,0.21h-0.33c-0.13,0-0.27-0.02-0.4-0.07c-0.18,0-0.22-0.09-0.13-0.28
			c0.13-0.65,0.38-1.19,0.74-1.61c0.72-1.31,1.54-2.34,2.48-3.09c0.14-0.19,0.29-0.33,0.47-0.42c0.67-0.7,1.41-1.26,2.21-1.68
			c0.36-0.23,0.71-0.39,1.07-0.46c0.36-0.07,0.71-0.15,1.07-0.25c0.18-0.14,0.38-0.09,0.6,0.14l0.47,0.42
			c0.05,0.09,0.14,0.09,0.27,0c0.09-0.19,0.13-0.33,0.13-0.42c-0.18-0.8-0.56-1.47-1.14-2.03c-0.18-0.23-0.47-0.35-0.87-0.35
			c-0.72,0-1.39,0.19-2.01,0.56l-1.14,0.7c-0.76,0.52-1.49,1.11-2.18,1.79c-0.7,0.68-1.35,1.39-1.98,2.14l-0.16,0.22
			c-0.61,0.29-1.17,0.55-1.68,0.77c-0.56,0.23-1.15,0.43-1.78,0.6c-0.63,0.16-1.31,0.32-2.05,0.46c-0.74,0.14-1.6,0.28-2.58,0.42
			c-0.05-0.05-0.05-0.12,0-0.21c0.04-0.09,0.07-0.16,0.07-0.21c0.22-0.51,0.37-0.9,0.43-1.16c0.07-0.26,0.19-0.64,0.37-1.16
			c0.13-0.37,0.24-0.71,0.33-1.02c0.09-0.3,0.09-0.78,0-1.44c0.04-0.28,0.04-0.51,0-0.7c-0.05-0.23-0.1-0.49-0.17-0.77
			c-0.07-0.28-0.21-0.54-0.44-0.77c-0.09-0.23-0.25-0.42-0.47-0.56c-0.22-0.14-0.45-0.23-0.67-0.28c-0.14-0.05-0.36-0.07-0.67-0.07
			c-0.31,0-0.65,0.02-1.01,0.07c-0.45,0.05-0.99,0.26-1.61,0.63l-0.67,0.49c-0.45,0.52-0.82,0.88-1.11,1.09
			c-0.29,0.21-0.59,0.62-0.91,1.23c-0.14,0.47-0.33,0.87-0.6,1.19c-0.09,0.09-0.15,0.2-0.17,0.32c-0.02,0.12-0.08,0.27-0.17,0.46
			c-0.13,0.37-0.26,0.71-0.37,1.02c-0.11,0.31-0.21,0.64-0.3,1.02c-0.54,1.12-0.74,2.39-0.6,3.79c0,0.52,0.13,1.03,0.4,1.54
			c0.27,0.52,0.65,0.91,1.14,1.19c0.09,0.09,0.31,0.18,0.67,0.24c0.36,0.07,0.65,0.08,0.87,0.04c0.49,0,0.98-0.12,1.48-0.35
			c0.49-0.23,0.92-0.56,1.28-0.98l0.54-0.63c0.22-0.37,0.46-0.65,0.71-0.84c0.24-0.19,0.48-0.47,0.7-0.84
			c0.05-0.19,0.08-0.33,0.1-0.42c0.02-0.09,0.12-0.16,0.3-0.21c0.09-0.05,0.19-0.07,0.3-0.07h0.3c1.03,0,2.17-0.16,3.42-0.49
			c1.25-0.33,2.21-0.65,2.89-0.98c0.16-0.07,0.27-0.12,0.4-0.17c-0.08,0.19-0.15,0.39-0.2,0.6c-0.22,0.66-0.2,1.26,0.07,1.82
			l0.54,1.05c0.36,0.94,0.94,1.36,1.74,1.26c0.63,0,1.19-0.09,1.68-0.28c0.49-0.09,0.95-0.26,1.38-0.49
			c0.42-0.23,0.86-0.49,1.31-0.77c0.67-0.47,1.33-0.98,1.98-1.54c0.65-0.56,1.31-1.12,1.98-1.68l1.14-1.19c0.14,0,0.2,0.07,0.2,0.21
			c0.27,1.03,0.69,1.94,1.28,2.73c0.22,0.38,0.51,0.69,0.87,0.95c0.36,0.26,0.71,0.48,1.07,0.67c0.31,0.14,0.67,0.21,1.07,0.21
			c0.09,0.09,0.29,0.12,0.61,0.07c0.31-0.05,0.51-0.07,0.6-0.07c1.25-0.05,2.58-0.47,3.99-1.26c0.85-0.48,1.6-1.08,2.28-1.79
			c-0.01,0.06-0.03,0.13-0.04,0.17c-0.05,0.19-0.07,0.52-0.07,0.98l-0.14,2.6c0,0.84,0.03,1.82,0.1,2.95
			c0.07,1.12,0.28,2.01,0.64,2.67c0.18,0.47,0.35,0.76,0.5,0.88c0.16,0.12,0.55,0.29,1.17,0.53c0.09,0.09,0.18,0.14,0.27,0.14
			c0.45,0,0.75-0.08,0.91-0.24c0.16-0.16,0.21-0.34,0.17-0.53c-0.05-0.19-0.17-0.36-0.37-0.53c-0.2-0.16-0.44-0.27-0.71-0.32
			c-0.09-0.19-0.17-0.3-0.24-0.35c-0.07-0.05-0.13-0.16-0.2-0.35c-0.07-0.19-0.12-0.53-0.17-1.02c-0.05-0.49-0.07-1.3-0.07-2.42
			c0-2.06,0.13-3.93,0.4-5.61c0.27-1.68,0.61-3.29,1.01-4.81c0.4-1.52,0.87-3,1.41-4.45c0.54-1.45,1.07-2.99,1.61-4.63
			c0.04-0.09,0.13-0.3,0.27-0.63c0.14-0.33,0.26-0.68,0.37-1.05c0.11-0.37,0.22-0.72,0.34-1.05c0.11-0.33,0.19-0.51,0.24-0.56
			c0.09-0.09,0.14-0.19,0.17-0.28c0.02-0.09,0.14-0.14,0.37-0.14L189.8,71.81z"/>
		<path d="M193.05,95.06c-0.26,0.23-0.49,0.42-0.72,0.59c0.43-0.15,0.87-0.33,1.34-0.54l0.61-0.38c0.22-0.14,0.46-0.27,0.69-0.37
			l0.37-0.27l1.7-1.21c0.14-0.1,0.27-0.22,0.41-0.33c-0.28,0.15-0.58,0.3-0.89,0.45c-0.18,0.08-0.3,0.15-0.42,0.24
			c-0.28,0.23-0.59,0.42-0.91,0.55l-0.32,0.17l-1.24,0.75C193.48,94.86,193.28,94.98,193.05,95.06 M190.27,100.43
			c-0.28,0-0.57-0.03-0.86-0.08c-0.52-0.1-1.01-0.32-1.46-0.66c-0.28-0.18-0.57-0.44-0.77-0.74c-0.16-0.24-0.31-0.52-0.43-0.84
			c-0.03-0.07-0.05-0.14-0.06-0.22l-0.2-1.05c-0.02-0.08-0.02-0.16-0.02-0.23c0-0.33,0.09-0.65,0.26-0.92
			c0.28-0.79,0.67-1.45,1.15-1.96c0.55-0.52,1.04-0.97,1.53-1.38c0.52-0.44,1.07-0.84,1.66-1.19c0.26-0.14,0.44-0.26,0.6-0.39
			c0.31-0.26,0.69-0.47,1.11-0.61c0.07-0.03,0.14-0.06,0.22-0.08c0.39-0.24,0.8-0.46,1.2-0.68l-0.85-0.23
			c-0.4-0.07-0.8-0.21-1.19-0.43c-1.24-0.5-2-1.59-2.13-3.11c-0.19-1.14,0.15-2.15,0.97-2.94c0.12-0.13,0.28-0.28,0.44-0.42
			c0.18-0.15,0.34-0.28,0.51-0.4c0.51-0.39,1.12-0.75,1.75-1.05c0.57-0.26,1.12-0.51,1.66-0.75c1.15-0.42,2.14-0.7,3-0.85
			c0.06-0.01,0.13-0.02,0.19-0.02c0.21-0.04,0.36-0.06,0.5-0.07c0.12-0.02,0.23-0.03,0.34-0.03c0.8,0,1.48,0.45,1.86,1.24
			c0.04,0.08,0.07,0.16,0.09,0.25c0.45,0.61,0.6,1.32,0.43,2.04c-0.01,0.12-0.03,0.23-0.06,0.33c-0.04,0.51-0.31,0.94-0.76,1.17
			c-0.21,0.11-0.42,0.16-0.63,0.16c-0.13,0-0.26-0.03-0.4-0.07c-0.2-0.05-0.39-0.16-0.56-0.31c-0.05-0.04-0.08-0.04-0.1-0.04
			c-0.05-0.01-0.11-0.01-0.17-0.01c-0.12,0-0.24,0.01-0.38,0.03c-0.63,0.18-1.27,0.37-1.92,0.59c-0.5,0.17-0.99,0.38-1.45,0.63
			c0.1,0.03,0.2,0.06,0.31,0.09c0.38,0.09,0.82,0.22,1.24,0.37c0.37,0.14,0.76,0.28,1.16,0.42c0.4,0.17,0.51,0.19,0.52,0.19
			c0.37,0.05,0.75,0.23,1.21,0.56c0.02,0.01,0.04,0.02,0.06,0.03c0.69-0.17,1.41-0.33,2.15-0.46c0.29-0.1,0.57-0.17,0.84-0.22
			c0.26-0.05,0.56-0.1,0.88-0.15c0.05-0.01,0.11-0.01,0.16-0.01c0.09-0.01,0.28-0.05,0.56-0.11c0.39-0.09,0.81-0.19,1.24-0.31
			c0.46-0.12,0.89-0.23,1.3-0.32c0.52-0.12,0.83-0.17,1.06-0.17c0.17-0.06,0.33-0.09,0.48-0.12c0.18-0.08,0.39-0.15,0.63-0.15
			c0.08,0,0.15,0.01,0.22,0.02c0.22-0.04,0.48-0.08,0.78-0.13c0.16-0.03,0.31-0.04,0.45-0.04c0.61,0,1.12,0.26,1.42,0.7
			c0.87,0.89,0.46,1.77,0.37,1.95c-0.23,0.41-0.58,0.72-1.05,0.91c-0.3,0.13-0.64,0.22-1.02,0.28c-0.36,0.06-0.65,0.08-0.88,0.08
			c-0.2,0-0.39,0.03-0.57,0.09c-0.28,0.09-0.55,0.18-0.82,0.27c-0.04,0.01-0.07,0.02-0.11,0.03l-3.82,0.91
			c-0.39,0.09-0.9,0.24-1.54,0.43c-0.03,0.01-0.07,0.02-0.1,0.03c0.14,0.39,0.18,0.75,0.12,1.09c-0.01,0.07-0.01,0.14-0.01,0.23
			c-0.06,0.74-0.16,1.24-0.31,1.66c-0.17,0.45-0.5,0.96-1.06,1.6c-0.42,0.54-0.92,1.05-1.46,1.48c-0.48,0.38-0.96,0.76-1.46,1.14
			c-0.59,0.42-1.18,0.78-1.79,1.11c-0.54,0.29-1.1,0.56-1.66,0.79c-0.25,0.19-0.5,0.26-0.71,0.28c-0.42,0.08-0.82,0.18-1.18,0.3
			c-0.52,0.17-1.05,0.26-1.59,0.27c-0.19,0.08-0.38,0.13-0.58,0.14C190.62,100.42,190.44,100.43,190.27,100.43"/>
		<path d="M199.76,91.21c-0.05,0.09-0.07,0.22-0.07,0.39c0,0.16-0.05,0.29-0.13,0.39c-0.58,0.75-1.21,1.38-1.88,1.89L196,95.06
			l-0.47,0.35c-0.22,0.09-0.45,0.21-0.67,0.35c-0.23,0.14-0.45,0.28-0.67,0.42c-1.03,0.47-1.97,0.8-2.82,0.98
			c-0.22,0.05-0.45,0.09-0.67,0.14c-0.22,0.05-0.45,0.07-0.67,0.07c-0.09,0-0.31-0.05-0.67-0.14l-0.07-0.14
			c0.36-0.65,0.81-1.19,1.34-1.61c0.27-0.23,0.55-0.46,0.84-0.67c0.29-0.21,0.57-0.43,0.84-0.67c0.09-0.09,0.2-0.16,0.34-0.21
			c0.13-0.05,0.24-0.12,0.33-0.21l1.41-0.84l0.4-0.21c0.22-0.09,0.44-0.22,0.64-0.39c0.2-0.16,0.41-0.29,0.64-0.39
			c0.58-0.28,1.12-0.56,1.61-0.84c0.49-0.28,1.03-0.54,1.61-0.77c0.09-0.05,0.2,0.05,0.34,0.28c0.13,0.24,0.2,0.4,0.2,0.49
			c-0.09,0.09-0.1,0.12-0.03,0.07C199.86,91.09,199.85,91.11,199.76,91.21 M211.1,86.08c-0.09-0.23-0.36-0.32-0.81-0.24
			c-0.45,0.07-0.81,0.13-1.07,0.17c-0.05-0.09-0.18-0.07-0.4,0.07c-0.13,0-0.27,0.02-0.4,0.07c-0.13,0.05-0.27,0.07-0.4,0.07
			s-0.4,0.05-0.81,0.14c-0.4,0.09-0.83,0.2-1.27,0.32c-0.45,0.12-0.87,0.22-1.28,0.32c-0.4,0.09-0.67,0.14-0.81,0.14
			c-0.31,0.05-0.59,0.09-0.84,0.14c-0.25,0.05-0.5,0.12-0.77,0.21c-0.8,0.14-1.57,0.31-2.28,0.49c-0.22,0.05-0.49-0.02-0.81-0.21
			c-0.31-0.23-0.56-0.36-0.74-0.39c-0.18-0.02-0.43-0.11-0.74-0.24c-0.4-0.14-0.8-0.28-1.17-0.42c-0.38-0.14-0.77-0.26-1.18-0.35
			c-0.31-0.09-0.6-0.18-0.87-0.25c-0.27-0.07-0.54-0.15-0.81-0.24c-0.09,0-0.23-0.05-0.4-0.14c-0.36-0.14-0.4-0.33-0.14-0.56
			c0.49-0.42,0.94-0.72,1.34-0.91c0.62-0.37,1.29-0.68,1.98-0.91c0.69-0.23,1.38-0.44,2.05-0.63c0.31-0.05,0.61-0.06,0.87-0.04
			c0.27,0.03,0.51,0.13,0.74,0.32c0.04,0.05,0.09,0.07,0.13,0.07c0.04,0.05,0.11,0.05,0.2,0c0.09-0.05,0.13-0.12,0.13-0.21
			c0-0.09,0.01-0.16,0.03-0.21c0.02-0.05,0.03-0.12,0.03-0.21c0.13-0.42,0.04-0.82-0.27-1.19c-0.09-0.19-0.13-0.3-0.13-0.35
			c-0.23-0.47-0.58-0.66-1.07-0.56c-0.09,0-0.19,0.01-0.3,0.04s-0.21,0.04-0.3,0.04c-0.81,0.14-1.72,0.4-2.75,0.77
			c-0.54,0.24-1.09,0.48-1.65,0.74c-0.56,0.26-1.09,0.57-1.58,0.95c-0.13,0.09-0.27,0.2-0.4,0.32c-0.13,0.12-0.27,0.25-0.4,0.39
			c-0.54,0.52-0.74,1.15-0.6,1.89c0.09,1.12,0.58,1.85,1.48,2.18c0.31,0.19,0.63,0.3,0.94,0.35l1.28,0.35
			c0.4,0.09,0.81,0.22,1.24,0.39c0.43,0.16,0.84,0.32,1.24,0.46c0.04,0.05,0.07,0.04,0.07-0.04c0-0.07,0.02-0.08,0.07-0.04
			c0,0.09-0.05,0.14-0.13,0.14c-0.63,0.24-1.26,0.52-1.91,0.84c-0.65,0.33-1.29,0.68-1.91,1.05c-0.05,0.05-0.09,0.07-0.14,0.07
			c-0.05,0-0.11,0.02-0.2,0.07c-0.31,0.09-0.58,0.23-0.81,0.42s-0.47,0.35-0.74,0.49c-0.54,0.33-1.04,0.69-1.51,1.09
			c-0.47,0.4-0.95,0.83-1.44,1.3c-0.4,0.42-0.71,0.98-0.94,1.68c-0.09,0.09-0.13,0.21-0.13,0.35l0.2,1.05
			c0.09,0.24,0.19,0.43,0.3,0.6c0.11,0.16,0.28,0.32,0.5,0.46c0.31,0.24,0.65,0.39,1.01,0.46c0.36,0.07,0.72,0.08,1.07,0.04
			c0.09,0,0.18-0.02,0.27-0.07c0.09-0.05,0.2-0.07,0.34-0.07c0.45,0,0.88-0.07,1.31-0.21c0.42-0.14,0.88-0.26,1.38-0.35
			c0.09,0,0.18-0.05,0.27-0.14c0.58-0.23,1.15-0.5,1.71-0.81c0.56-0.3,1.11-0.64,1.64-1.02c0.49-0.37,0.97-0.75,1.44-1.12
			c0.47-0.37,0.9-0.82,1.31-1.33c0.45-0.51,0.73-0.92,0.84-1.23c0.11-0.3,0.19-0.71,0.24-1.23c0-0.19,0.01-0.34,0.03-0.46
			c0.02-0.12-0.01-0.29-0.1-0.53c-0.05-0.14-0.14-0.32-0.3-0.53c-0.16-0.21-0.17-0.36-0.03-0.46c0.14-0.14,0.54-0.32,1.21-0.53
			c0.67-0.21,1.21-0.36,1.61-0.46l3.82-0.91c0.27-0.09,0.55-0.19,0.84-0.28c0.29-0.09,0.59-0.14,0.91-0.14
			c0.18,0,0.41-0.02,0.7-0.07c0.29-0.05,0.55-0.12,0.77-0.21c0.22-0.09,0.38-0.22,0.47-0.39C211.46,86.52,211.37,86.32,211.1,86.08"
			/>
	</g>
</g>
</svg>
